<svg width="200" height="200" xmlns="http://www.w3.org/2000/svg" viewBox="0 0 346.169 241.404"><defs><style>.a{fill:#fad141;}.b,.d{fill:none;stroke-miterlimit:10;stroke-width:6px;}.b{stroke:#666;}.c{fill:#253858;font-size:24px;font-family:YuGothicUI-Regular, Yu Gothic UI;}.d{stroke:#65c8d0;}.e{fill:#eceef0;}.f{fill:#666;}.g{fill:#ba9bc9;}.h{fill:#29abe2;}</style></defs><g transform="translate(-718.291 -284.439)"><g transform="translate(912.7 376.797)"><g transform="translate(0 0)"><circle class="a" cx="22.824" cy="22.824" r="22.824" transform="matrix(0.233, -0.973, 0.973, 0.233, 0, 47.901)"/><circle class="b" cx="11.814" cy="11.814" r="11.814" transform="translate(34.395 0)"/></g></g><text class="c" transform="translate(795.363 423.693)"><tspan x="0" y="0">Tasks Experience</tspan></text><g transform="matrix(0.899, 0.438, -0.438, 0.899, 834.901, 393.662)"><g transform="translate(17.722 0)"><path class="d" d="M0,47.02l13.291,3.716,4.288-13.1L30.87,41.3l4.335-13.1L48.5,31.918l4.288-13.1,13.291,3.716,4.335-13.1L83.7,13.1,87.989,0"/></g><g transform="translate(0 1.953)"><path class="b" d="M0,47.02l13.291,3.668,4.288-13.1L30.87,41.3l4.335-13.1L48.5,31.918l4.288-13.1,13.291,3.716L70.41,9.385,83.7,13.1,87.989,0"/></g></g><g transform="translate(874.927 312.503)"><line class="b" x2="20.574" y2="20.574" transform="translate(0 0)"/><line class="b" y1="20.574" x2="20.574" transform="translate(0 0)"/></g><g transform="matrix(0.966, 0.259, -0.259, 0.966, 724.309, 385.45)"><g transform="translate(0 0)"><path class="b" d="M0,0C5.011,0,5.011,6.264,10.022,6.264S15.033,0,20.044,0s5.011,6.264,10.074,6.264S35.129,0,40.14,0"/></g><g transform="translate(0 13.989)"><path class="b" d="M0,0C5.011,0,5.011,6.264,10.022,6.264S15.033,0,20.044,0s5.011,6.264,10.022,6.264S35.077,0,40.088,0"/></g></g><g transform="matrix(-0.966, -0.259, 0.259, -0.966, 1047.768, 421.096)"><g transform="translate(2.758 1.93)"><g transform="translate(59.845 59.885)"><path class="e" d="M2.324,4.649A2.3,2.3,0,0,1,0,2.324,2.3,2.3,0,0,1,2.324,0,2.3,2.3,0,0,1,4.649,2.324,2.329,2.329,0,0,1,2.324,4.649Z"/></g><g transform="translate(47.868 47.908)"><path class="e" d="M2.324,4.649A2.3,2.3,0,0,1,0,2.324,2.3,2.3,0,0,1,2.324,0,2.3,2.3,0,0,1,4.649,2.324,2.329,2.329,0,0,1,2.324,4.649Z"/><path class="e" d="M2.324,4.649A2.3,2.3,0,0,1,0,2.324,2.3,2.3,0,0,1,2.324,0,2.3,2.3,0,0,1,4.649,2.324,2.329,2.329,0,0,1,2.324,4.649Z" transform="translate(0 11.977)"/></g><g transform="translate(35.891 35.931)"><path class="e" d="M2.324,4.649A2.3,2.3,0,0,1,0,2.324,2.3,2.3,0,0,1,2.324,0,2.3,2.3,0,0,1,4.649,2.324,2.329,2.329,0,0,1,2.324,4.649Z"/><path class="e" d="M2.324,4.649A2.3,2.3,0,0,1,0,2.324,2.3,2.3,0,0,1,2.324,0,2.3,2.3,0,0,1,4.649,2.324,2.329,2.329,0,0,1,2.324,4.649Z" transform="translate(0 11.977)"/><path class="e" d="M2.324,4.649A2.3,2.3,0,0,1,0,2.324,2.3,2.3,0,0,1,2.324,0,2.3,2.3,0,0,1,4.649,2.324,2.329,2.329,0,0,1,2.324,4.649Z" transform="translate(0 23.954)"/></g><g transform="translate(23.915 23.954)"><path class="e" d="M2.324,4.649A2.3,2.3,0,0,1,0,2.324,2.3,2.3,0,0,1,2.324,0,2.3,2.3,0,0,1,4.649,2.324,2.3,2.3,0,0,1,2.324,4.649Z"/><path class="e" d="M2.324,4.649A2.3,2.3,0,0,1,0,2.324,2.3,2.3,0,0,1,2.324,0,2.3,2.3,0,0,1,4.649,2.324,2.329,2.329,0,0,1,2.324,4.649Z" transform="translate(0 11.977)"/><path class="e" d="M2.324,4.649A2.3,2.3,0,0,1,0,2.324,2.3,2.3,0,0,1,2.324,0,2.3,2.3,0,0,1,4.649,2.324,2.329,2.329,0,0,1,2.324,4.649Z" transform="translate(0 23.954)"/><path class="e" d="M2.324,4.649A2.3,2.3,0,0,1,0,2.324,2.3,2.3,0,0,1,2.324,0,2.3,2.3,0,0,1,4.649,2.324,2.329,2.329,0,0,1,2.324,4.649Z" transform="translate(0 35.931)"/></g><g transform="translate(11.977 11.977)"><path class="e" d="M2.324,4.649A2.3,2.3,0,0,1,0,2.324,2.3,2.3,0,0,1,2.324,0,2.3,2.3,0,0,1,4.649,2.324,2.329,2.329,0,0,1,2.324,4.649Z"/><path class="e" d="M2.324,4.649A2.3,2.3,0,0,1,0,2.324,2.3,2.3,0,0,1,2.324,0,2.3,2.3,0,0,1,4.649,2.324,2.329,2.329,0,0,1,2.324,4.649Z" transform="translate(0 11.977)"/><path class="e" d="M2.324,4.649A2.3,2.3,0,0,1,0,2.324,2.3,2.3,0,0,1,2.324,0,2.3,2.3,0,0,1,4.649,2.324,2.355,2.355,0,0,1,2.324,4.649Z" transform="translate(0 23.954)"/><path class="e" d="M2.324,4.649A2.3,2.3,0,0,1,0,2.324,2.3,2.3,0,0,1,2.324,0,2.3,2.3,0,0,1,4.649,2.324,2.355,2.355,0,0,1,2.324,4.649Z" transform="translate(0 35.931)"/><path class="e" d="M2.324,4.649A2.3,2.3,0,0,1,0,2.324,2.3,2.3,0,0,1,2.324,0,2.3,2.3,0,0,1,4.649,2.324,2.355,2.355,0,0,1,2.324,4.649Z" transform="translate(0 47.908)"/></g><path class="e" d="M2.324,4.649A2.3,2.3,0,0,1,0,2.324,2.3,2.3,0,0,1,2.324,0,2.3,2.3,0,0,1,4.649,2.324,2.329,2.329,0,0,1,2.324,4.649Z"/><path class="e" d="M2.324,4.649A2.3,2.3,0,0,1,0,2.324,2.3,2.3,0,0,1,2.324,0,2.3,2.3,0,0,1,4.649,2.324,2.329,2.329,0,0,1,2.324,4.649Z" transform="translate(0 11.977)"/><path class="e" d="M2.324,4.649A2.3,2.3,0,0,1,0,2.324,2.3,2.3,0,0,1,2.324,0,2.3,2.3,0,0,1,4.649,2.324,2.329,2.329,0,0,1,2.324,4.649Z" transform="translate(0 23.954)"/><path class="e" d="M2.324,4.649A2.3,2.3,0,0,1,0,2.324,2.3,2.3,0,0,1,2.324,0,2.3,2.3,0,0,1,4.649,2.324,2.355,2.355,0,0,1,2.324,4.649Z" transform="translate(0 35.931)"/><path class="e" d="M2.324,4.649A2.3,2.3,0,0,1,0,2.324,2.3,2.3,0,0,1,2.324,0,2.3,2.3,0,0,1,4.649,2.324,2.355,2.355,0,0,1,2.324,4.649Z" transform="translate(0 47.908)"/><path class="e" d="M2.324,4.649A2.3,2.3,0,0,1,0,2.324,2.3,2.3,0,0,1,2.324,0,2.3,2.3,0,0,1,4.649,2.324,2.355,2.355,0,0,1,2.324,4.649Z" transform="translate(0 59.885)"/></g><g transform="translate(59.845 59.845)"><path class="f" d="M2.324,4.649A2.3,2.3,0,0,1,0,2.324,2.3,2.3,0,0,1,2.324,0,2.3,2.3,0,0,1,4.649,2.324,2.3,2.3,0,0,1,2.324,4.649Z"/></g><g transform="translate(47.868 47.908)"><path class="f" d="M2.324,4.649A2.3,2.3,0,0,1,0,2.324,2.3,2.3,0,0,1,2.324,0,2.3,2.3,0,0,1,4.649,2.324,2.3,2.3,0,0,1,2.324,4.649Z"/><path class="f" d="M2.324,4.649A2.3,2.3,0,0,1,0,2.324,2.3,2.3,0,0,1,2.324,0,2.3,2.3,0,0,1,4.649,2.324,2.28,2.28,0,0,1,2.324,4.649Z" transform="translate(0 11.938)"/></g><g transform="translate(35.931 35.931)"><path class="f" d="M2.324,4.649A2.3,2.3,0,0,1,0,2.324,2.3,2.3,0,0,1,2.324,0,2.3,2.3,0,0,1,4.649,2.324,2.355,2.355,0,0,1,2.324,4.649Z"/><path class="f" d="M2.324,4.649A2.3,2.3,0,0,1,0,2.324,2.3,2.3,0,0,1,2.324,0,2.3,2.3,0,0,1,4.649,2.324,2.355,2.355,0,0,1,2.324,4.649Z" transform="translate(0 11.977)"/><path class="f" d="M2.324,4.649A2.3,2.3,0,0,1,0,2.324,2.3,2.3,0,0,1,2.324,0,2.3,2.3,0,0,1,4.649,2.324,2.329,2.329,0,0,1,2.324,4.649Z" transform="translate(0 23.915)"/></g><g transform="translate(23.954 23.954)"><path class="f" d="M2.324,4.649A2.3,2.3,0,0,1,0,2.324,2.3,2.3,0,0,1,2.324,0,2.3,2.3,0,0,1,4.649,2.324,2.355,2.355,0,0,1,2.324,4.649Z"/><path class="f" d="M2.324,4.649A2.3,2.3,0,0,1,0,2.324,2.3,2.3,0,0,1,2.324,0,2.3,2.3,0,0,1,4.649,2.324,2.355,2.355,0,0,1,2.324,4.649Z" transform="translate(0 11.977)"/><path class="f" d="M2.324,4.649A2.3,2.3,0,0,1,0,2.324,2.3,2.3,0,0,1,2.324,0,2.3,2.3,0,0,1,4.649,2.324,2.355,2.355,0,0,1,2.324,4.649Z" transform="translate(0 23.954)"/><path class="f" d="M2.324,4.649A2.3,2.3,0,0,1,0,2.324,2.3,2.3,0,0,1,2.324,0,2.3,2.3,0,0,1,4.649,2.324,2.329,2.329,0,0,1,2.324,4.649Z" transform="translate(0 35.892)"/></g><g transform="translate(11.977 11.977)"><path class="f" d="M2.324,4.649A2.3,2.3,0,0,1,0,2.324,2.3,2.3,0,0,1,2.324,0,2.3,2.3,0,0,1,4.649,2.324,2.3,2.3,0,0,1,2.324,4.649Z"/><path class="f" d="M2.324,4.649A2.3,2.3,0,0,1,0,2.324,2.3,2.3,0,0,1,2.324,0,2.3,2.3,0,0,1,4.649,2.324,2.329,2.329,0,0,1,2.324,4.649Z" transform="translate(0 11.977)"/><path class="f" d="M2.324,4.649A2.3,2.3,0,0,1,0,2.324,2.3,2.3,0,0,1,2.324,0,2.3,2.3,0,0,1,4.649,2.324,2.329,2.329,0,0,1,2.324,4.649Z" transform="translate(0 23.954)"/><path class="f" d="M2.324,4.649A2.3,2.3,0,0,1,0,2.324,2.3,2.3,0,0,1,2.324,0,2.3,2.3,0,0,1,4.649,2.324,2.329,2.329,0,0,1,2.324,4.649Z" transform="translate(0 35.931)"/><path class="f" d="M2.324,4.649A2.3,2.3,0,0,1,0,2.324,2.3,2.3,0,0,1,2.324,0,2.3,2.3,0,0,1,4.649,2.324,2.3,2.3,0,0,1,2.324,4.649Z" transform="translate(0 47.868)"/></g><path class="f" d="M2.324,4.649A2.3,2.3,0,0,1,0,2.324a2.324,2.324,0,0,1,4.649,0A2.3,2.3,0,0,1,2.324,4.649Z"/><path class="f" d="M2.324,4.649A2.3,2.3,0,0,1,0,2.324,2.3,2.3,0,0,1,2.324,0,2.3,2.3,0,0,1,4.649,2.324,2.3,2.3,0,0,1,2.324,4.649Z" transform="translate(0 11.977)"/><path class="f" d="M2.324,4.649A2.3,2.3,0,0,1,0,2.324,2.3,2.3,0,0,1,2.324,0,2.3,2.3,0,0,1,4.649,2.324,2.329,2.329,0,0,1,2.324,4.649Z" transform="translate(0 23.954)"/><path class="f" d="M2.324,4.649A2.3,2.3,0,0,1,0,2.324,2.3,2.3,0,0,1,2.324,0,2.3,2.3,0,0,1,4.649,2.324,2.329,2.329,0,0,1,2.324,4.649Z" transform="translate(0 35.931)"/><path class="f" d="M2.324,4.649A2.3,2.3,0,0,1,0,2.324,2.3,2.3,0,0,1,2.324,0,2.3,2.3,0,0,1,4.649,2.324,2.329,2.329,0,0,1,2.324,4.649Z" transform="translate(0 47.908)"/><path class="f" d="M2.324,4.649A2.3,2.3,0,0,1,0,2.324,2.3,2.3,0,0,1,2.324,0,2.3,2.3,0,0,1,4.649,2.324,2.3,2.3,0,0,1,2.324,4.649Z" transform="translate(0 59.845)"/></g><g transform="translate(924.852 481.095)"><g transform="translate(0 0)"><path class="g" d="M37.869,54.84a18.025,18.025,0,1,1,19.171-16.8A18.047,18.047,0,0,1,37.869,54.84Z" transform="translate(-11.12 -10.132)"/><path class="b" d="M15.525,29.738a13.361,13.361,0,1,1,14.213-12.45A13.335,13.335,0,0,1,15.525,29.738Z" transform="translate(-3.044 -3.044)"/></g></g><g transform="translate(758.393 290)"><path class="h" d="M82.045,63.953,24.1,62.346,54.4,13Z" transform="translate(-7.705 -7.053)"/><path class="b" d="M57.466,41.283,3.7,62.983,11.817,5.6Z" transform="translate(-3.7 -5.6)"/></g></g></svg>