<svg xmlns="http://www.w3.org/2000/svg" viewBox="0 0 81.692 101.54"><defs><style>.a{fill:#eceef0;}.b{fill:#666;}</style></defs><g transform="matrix(-0.966, -0.259, 0.259, -0.966, 60.922, 101.54)"><g transform="translate(3.432 2.402)"><g transform="translate(74.464 74.513)"><path class="a" d="M161.792,162.685a2.892,2.892,0,1,1,2.892-2.892A2.9,2.9,0,0,1,161.792,162.685Z" transform="translate(-158.9 -156.9)"/></g><g transform="translate(59.562 59.611)"><path class="a" d="M131.392,132.285a2.892,2.892,0,1,1,2.892-2.892A2.9,2.9,0,0,1,131.392,132.285Z" transform="translate(-128.5 -126.5)"/><path class="a" d="M131.392,162.685a2.892,2.892,0,1,1,2.892-2.892A2.9,2.9,0,0,1,131.392,162.685Z" transform="translate(-128.5 -141.997)"/></g><g transform="translate(44.659 44.708)"><path class="a" d="M100.992,101.885a2.892,2.892,0,1,1,2.892-2.892A2.9,2.9,0,0,1,100.992,101.885Z" transform="translate(-98.1 -96.1)"/><path class="a" d="M100.992,132.285a2.892,2.892,0,1,1,2.892-2.892A2.9,2.9,0,0,1,100.992,132.285Z" transform="translate(-98.1 -111.597)"/><path class="a" d="M100.992,162.685a2.892,2.892,0,1,1,2.892-2.892A2.9,2.9,0,0,1,100.992,162.685Z" transform="translate(-98.1 -127.095)"/></g><g transform="translate(29.756 29.805)"><path class="a" d="M70.592,71.485a2.892,2.892,0,1,1,2.892-2.892A2.867,2.867,0,0,1,70.592,71.485Z" transform="translate(-67.7 -65.7)"/><path class="a" d="M70.592,101.885a2.892,2.892,0,1,1,2.892-2.892A2.9,2.9,0,0,1,70.592,101.885Z" transform="translate(-67.7 -81.197)"/><path class="a" d="M70.592,132.285a2.892,2.892,0,1,1,2.892-2.892A2.9,2.9,0,0,1,70.592,132.285Z" transform="translate(-67.7 -96.695)"/><path class="a" d="M70.592,162.685a2.892,2.892,0,1,1,2.892-2.892A2.9,2.9,0,0,1,70.592,162.685Z" transform="translate(-67.7 -112.192)"/></g><g transform="translate(14.903 14.903)"><path class="a" d="M40.292,41.085a2.892,2.892,0,1,1,2.892-2.892A2.9,2.9,0,0,1,40.292,41.085Z" transform="translate(-37.4 -35.3)"/><path class="a" d="M40.292,71.485a2.892,2.892,0,1,1,2.892-2.892A2.9,2.9,0,0,1,40.292,71.485Z" transform="translate(-37.4 -50.797)"/><path class="a" d="M40.292,101.885a2.892,2.892,0,1,1,2.892-2.892A2.93,2.93,0,0,1,40.292,101.885Z" transform="translate(-37.4 -66.295)"/><path class="a" d="M40.292,132.285a2.892,2.892,0,1,1,2.892-2.892A2.93,2.93,0,0,1,40.292,132.285Z" transform="translate(-37.4 -81.792)"/><path class="a" d="M40.292,162.685a2.892,2.892,0,1,1,2.892-2.892A2.93,2.93,0,0,1,40.292,162.685Z" transform="translate(-37.4 -97.289)"/></g><path class="a" d="M9.892,10.685a2.892,2.892,0,1,1,2.892-2.892A2.9,2.9,0,0,1,9.892,10.685Z" transform="translate(-7 -4.9)"/><path class="a" d="M9.892,41.085a2.892,2.892,0,1,1,2.892-2.892A2.9,2.9,0,0,1,9.892,41.085Z" transform="translate(-7 -20.397)"/><path class="a" d="M9.892,71.485a2.892,2.892,0,1,1,2.892-2.892A2.9,2.9,0,0,1,9.892,71.485Z" transform="translate(-7 -35.895)"/><path class="a" d="M9.892,101.885a2.892,2.892,0,1,1,2.892-2.892A2.93,2.93,0,0,1,9.892,101.885Z" transform="translate(-7 -51.392)"/><path class="a" d="M9.892,132.285a2.892,2.892,0,1,1,2.892-2.892A2.93,2.93,0,0,1,9.892,132.285Z" transform="translate(-7 -66.889)"/><path class="a" d="M9.892,162.685a2.892,2.892,0,1,1,2.892-2.892A2.93,2.93,0,0,1,9.892,162.685Z" transform="translate(-7 -82.387)"/></g><g transform="translate(74.464 74.464)"><path class="b" d="M154.792,157.685a2.892,2.892,0,1,1,2.892-2.892A2.867,2.867,0,0,1,154.792,157.685Z" transform="translate(-151.9 -151.9)"/></g><g transform="translate(59.562 59.611)"><path class="b" d="M124.392,127.385a2.892,2.892,0,1,1,2.892-2.892A2.867,2.867,0,0,1,124.392,127.385Z" transform="translate(-121.5 -121.6)"/><path class="b" d="M124.392,157.685a2.892,2.892,0,1,1,2.892-2.892A2.837,2.837,0,0,1,124.392,157.685Z" transform="translate(-121.5 -137.046)"/></g><g transform="translate(44.708 44.708)"><path class="b" d="M94.092,96.985a2.892,2.892,0,1,1,2.892-2.892A2.93,2.93,0,0,1,94.092,96.985Z" transform="translate(-91.2 -91.2)"/><path class="b" d="M94.092,127.385a2.892,2.892,0,1,1,2.892-2.892A2.93,2.93,0,0,1,94.092,127.385Z" transform="translate(-91.2 -106.697)"/><path class="b" d="M94.092,157.685a2.892,2.892,0,1,1,2.892-2.892A2.9,2.9,0,0,1,94.092,157.685Z" transform="translate(-91.2 -122.144)"/></g><g transform="translate(29.805 29.805)"><path class="b" d="M63.692,66.585a2.892,2.892,0,1,1,2.892-2.892A2.93,2.93,0,0,1,63.692,66.585Z" transform="translate(-60.8 -60.8)"/><path class="b" d="M63.692,96.985a2.892,2.892,0,1,1,2.892-2.892A2.93,2.93,0,0,1,63.692,96.985Z" transform="translate(-60.8 -76.297)"/><path class="b" d="M63.692,127.385a2.892,2.892,0,1,1,2.892-2.892A2.93,2.93,0,0,1,63.692,127.385Z" transform="translate(-60.8 -91.795)"/><path class="b" d="M63.692,157.685a2.892,2.892,0,1,1,2.892-2.892A2.9,2.9,0,0,1,63.692,157.685Z" transform="translate(-60.8 -107.241)"/></g><g transform="translate(14.903 14.903)"><path class="b" d="M33.292,36.185a2.892,2.892,0,1,1,2.892-2.892A2.867,2.867,0,0,1,33.292,36.185Z" transform="translate(-30.4 -30.4)"/><path class="b" d="M33.292,66.585a2.892,2.892,0,1,1,2.892-2.892A2.9,2.9,0,0,1,33.292,66.585Z" transform="translate(-30.4 -45.897)"/><path class="b" d="M33.292,96.985a2.892,2.892,0,1,1,2.892-2.892A2.9,2.9,0,0,1,33.292,96.985Z" transform="translate(-30.4 -61.395)"/><path class="b" d="M33.292,127.385a2.892,2.892,0,1,1,2.892-2.892A2.9,2.9,0,0,1,33.292,127.385Z" transform="translate(-30.4 -76.892)"/><path class="b" d="M33.292,157.685a2.892,2.892,0,1,1,2.892-2.892A2.867,2.867,0,0,1,33.292,157.685Z" transform="translate(-30.4 -92.338)"/></g><path class="b" d="M2.892,5.785A2.867,2.867,0,0,1,0,2.892a2.892,2.892,0,0,1,5.785,0A2.867,2.867,0,0,1,2.892,5.785Z"/><path class="b" d="M2.892,36.185a2.892,2.892,0,0,1,0-5.785,2.892,2.892,0,0,1,0,5.785Z" transform="translate(0 -15.497)"/><path class="b" d="M2.892,66.585a2.892,2.892,0,0,1,0-5.785,2.867,2.867,0,0,1,2.892,2.892A2.9,2.9,0,0,1,2.892,66.585Z" transform="translate(0 -30.995)"/><path class="b" d="M2.892,96.985a2.892,2.892,0,0,1,0-5.785,2.867,2.867,0,0,1,2.892,2.892A2.9,2.9,0,0,1,2.892,96.985Z" transform="translate(0 -46.492)"/><path class="b" d="M2.892,127.385a2.892,2.892,0,0,1,0-5.785,2.867,2.867,0,0,1,2.892,2.892A2.9,2.9,0,0,1,2.892,127.385Z" transform="translate(0 -61.989)"/><path class="b" d="M2.892,157.685a2.892,2.892,0,0,1,0-5.785,2.892,2.892,0,0,1,0,5.785Z" transform="translate(0 -77.436)"/></g></svg>