<svg xmlns="http://www.w3.org/2000/svg" viewBox="0 0 1058.955 904.409"><defs><style>.a,.ak,.c,.d,.t{fill:#8982bc;}.a{opacity:0.17;}.b{fill:#ddd6ff;}.c,.n{opacity:0.18;}.e{fill:#eff3fb;}.f{fill:#624fb5;}.g{fill:#fff;}.h{fill:#4d7eb7;font-size:12px;}.ah,.h{font-family:SegoeUI, Segoe UI;}.i{fill:#fc846d;}.j{fill:#f9d452;}.k{fill:#57be8b;}.ac,.l{fill:#c4b9ff;}.m{fill:#fe9887;}.o{fill:#3f327a;}.p{fill:#f7d3a9;}.q{fill:#ffc359;}.r{fill:#353e70;}.s{fill:#d69e43;}.t{opacity:0.25;}.u{fill:#2c2656;}.v{fill:#7fbbef;}.w{fill:#ce6c5f;}.x{fill:#453c87;}.y{fill:#dba246;}.z{fill:#d3ab84;}.aa{fill:#f4f3ff;}.ab{fill:#232049;}.ac{opacity:0.36;}.ad{fill:#58bb85;}.ae{fill:none;stroke:#7972a8;stroke-miterlimit:10;stroke-width:0.05px;}.af{fill:#76cc9b;}.ag{fill:#ffd052;}.ah{fill:#f5f1eb;font-size:40px;}.ai{fill:#40337b;}.aj{fill:#f19e36;}.ak{opacity:0.06;}</style></defs><g transform="translate(-174.014 -88.597)"><path class="a" d="M145.025,405.63c0,2.5-21.378,4.43-47.762,4.43S49.5,408.133,49.5,405.63s21.378-4.43,47.762-4.43S145.025,403.126,145.025,405.63Z" transform="translate(342.812 459.881)"/><ellipse class="a" cx="59.318" cy="4.43" rx="59.318" ry="4.43" transform="translate(981.446 868.785)"/><path class="a" d="M265.769,404.559c0,2.118-18.874,3.852-41.985,3.852s-41.985-1.733-41.985-3.852,18.874-3.852,41.985-3.852C247.088,400.514,265.769,402.248,265.769,404.559Z" transform="translate(465.309 459.411)"/><path class="b" d="M101.4,146V636.335H622.357V162.37Z" transform="translate(267.866 223.591)"/><path class="c" d="M177.5,333.3l-7.7,133.08,261.538-4.237Z" transform="translate(331.198 397.013)"/><path class="d" d="M177.267,472.376l-3.467-132.5L423.2,326.2l4.43,142.517Z" transform="translate(334.902 390.439)"/><path class="c" d="M220.3,245.718l2.889,123.836,257.493-2.118L468.741,222.8Z" transform="translate(377.956 294.701)"/><path class="e" d="M100.1,175.159l523.46,3.659V157.633L100.1,145.5Z" transform="translate(266.663 223.128)"/><path class="f" d="M100.1,160.9v42.948H623.56V164.559Z" transform="translate(266.663 237.387)"/><circle class="g" cx="15.215" cy="15.215" r="15.215" transform="translate(399.621 431.216) rotate(-76.761)"/><path class="g" d="M144.3,169.4v10.4h76.266V169.4" transform="translate(307.588 245.257)"/><text class="h" transform="translate(583.55 426.282)"><tspan x="0" y="0">Text</tspan></text><g transform="translate(381.207 382.11)"><circle class="i" cx="3.274" cy="3.274" r="3.274"/><circle class="j" cx="3.274" cy="3.274" r="3.274" transform="translate(15.022)"/><path class="k" d="M129.748,155.774a3.274,3.274,0,1,1-3.274-3.274A3.134,3.134,0,0,1,129.748,155.774Z" transform="translate(-93.156 -152.5)"/></g><rect class="l" width="6.933" height="87.821" transform="translate(411.251 475.323)"/><path class="d" d="M134.5,204.856v7.318h95.14L230.8,203.7Z" transform="translate(298.514 277.016)"/><path class="d" d="M217.9,199.663v7.318H483.1l3.274-8.281Z" transform="translate(375.734 272.386)"/><path class="d" d="M217.9,303.163v7.318H483.1l3.274-8.281Z" transform="translate(375.734 368.217)"/><path class="d" d="M217.9,212.763v7.318H318.817l1.348-8.281Z" transform="translate(375.734 284.516)"/><path class="d" d="M217.9,316.556v7.318H318.817l1.348-8.474Z" transform="translate(375.734 380.439)"/><path class="d" d="M135,216.1v7.511h94.947l.385-6.741Z" transform="translate(298.977 288.497)"/><path class="d" d="M134.8,228.8v7.318h94.947l.385-6.741Z" transform="translate(298.792 300.256)"/><path class="d" d="M134.8,242.7v7.511h94.947l.385-6.741Z" transform="translate(298.792 313.126)"/><path class="m" d="M220.3,242.311,231.085,373.08l248.634-20.415L468.741,219.2Z" transform="translate(377.956 291.367)"/><g class="n" transform="translate(817.087 629.179)"><path class="d" d="M338.5,299.108a55.334,55.334,0,0,1-4.43-13.481,4.694,4.694,0,0,1,0-2.311c.385-1.733,2.5-2.7,4.237-2.5a7.2,7.2,0,0,1,4.43,2.7c1.156,1.348,2.311,2.889,3.467,4.044a27.562,27.562,0,0,0,2.889,2.119,53.079,53.079,0,0,0,7.511,3.467c1.733.578,3.467.963,4.622,2.118a14.5,14.5,0,0,1-5.778.77,70.893,70.893,0,0,0-17.911,1.926,1.847,1.847,0,0,1,1.733-.385" transform="translate(-333.925 -280.787)"/></g><g class="n" transform="translate(835.425 560.018)"><path class="d" d="M364.734,300.966c-4.815-2.5-6.163-8.474-7.511-13.674a94.552,94.552,0,0,0-11.363-27.348,15.848,15.848,0,0,1-2.311-4.815,8.561,8.561,0,0,1,4.43-8.667,13.971,13.971,0,0,1,10.015-1.156Z" transform="translate(-343.447 -244.876)"/></g><g transform="translate(822.179 562.354)"><path class="b" d="M366.3,381.511l3.081,5.007,3.852-1.926-3.467-5.393Z" transform="translate(-309.041 -122.843)"/><path class="o" d="M385.044,390.521s-17.141-4.044-19.837-1.926,19.837,5.007,19.837,5.007Z" transform="translate(-310.26 -114.712)"/><path class="p" d="M347.414,294.417s.193-8.667-.385-8.667c-1.541-.385-1.733,4.044-1.733,4.044s-2.7-8.474-3.852-8.089c-.77.193.193,5.2.193,5.2s-2.119-3.852-3.274-3.659c-.963.193,1.156,5.585,1.156,5.585s-1.926-2.5-2.889-2.311c-.77.193,6.163,11.748,6.163,11.748Z" transform="translate(-336.569 -213.124)"/><path class="o" d="M369.379,328.662s-27.155,32.933-13.674,71.644c13.674,38.711,22.726,42.755,22.726,42.755l7.9-4.044s-15.215-36.207-15.792-49.3c-.578-11.941,20.222-40.059,20.222-40.059l-4.237,106.5,10.015,1.348S423.3,338.1,420.415,328.854C417.719,319.225,405.779,305.743,369.379,328.662Z" transform="translate(-322.327 -181.31)"/><path class="q" d="M375.585,314.007l5.97,45.066L430.28,353.3,410.444,283l-14.637,2.311-10.4,1.156c-5.97.77-9.63,1.733-13.867,5.97l-16.948,19.452-8.474-20.222-7.318,3.659s5.97,36.785,15.6,33.126C360.948,325.948,375.585,314.007,375.585,314.007Z" transform="translate(-334.503 -211.915)"/><path class="q" d="M356.748,253.8s10.785,27.155,12.133,31.392,31.007,24.844,31.007,24.844l-14.637,6.741-28.7-26.577L350.2,253.8h6.548Z" transform="translate(-323.948 -238.951)"/><g transform="translate(39.676 39.298)"><path class="p" d="M361.464,268.7l-4.044,14.252a5.877,5.877,0,0,0,4.044,7.318l1.926.578v10.207h8.667a5.589,5.589,0,0,0,5.585-5.585V272.359Z" transform="translate(-357.171 -264.453)"/><path class="r" d="M369.534,293.66c-1.541-1.156-3.852-3.274-3.852-6.163,0,0,5.97-.193,4.43-4.43-.963-2.5-4.43-.578-4.43-.578s1.348-5.2.578-6.933c0,0-10.4,0-8.667-6.163,0,0,2.889-2.7,9.437-2.889,6.548-.385,10.015,10.592,10.015,10.592l-5.393,15.792C371.075,293.853,370.112,294.238,369.534,293.66Z" transform="translate(-356.959 -266.495)"/></g><path class="p" d="M352.8,260.939s-5.392-6.741-5.2-7.126c.963-1.348,3.852,1.926,3.852,1.926s-3.274-8.281-1.926-8.859c.77-.193,2.889,4.237,2.889,4.237s-.77-4.43.193-5.007c.963-.385,2.5,5.007,2.5,5.007s0-3.081.963-3.467c.578-.193,2.5,13.1,2.5,13.1H352.8Z" transform="translate(-326.358 -246.09)"/><g transform="translate(40.109 94.322)"><path class="s" d="M369.345,295.132c0,.193-.578.385-1.733,1.348-.963.77-2.5,1.926-4.044,3.081-3.274,2.311-5.97,4.044-6.163,3.852s2.5-2.119,5.585-4.43c1.541-1.156,3.081-2.119,4.237-2.889C368.575,295.132,369.345,294.94,369.345,295.132Z" transform="translate(-357.395 -295.065)"/></g><g transform="translate(46.089 66.848)"><path class="s" d="M374.559,280.8h.193c.193,0,.193.385.385.578a8.636,8.636,0,0,1-.193,2.119,7.659,7.659,0,0,1-1.156,3.081,9.648,9.648,0,0,1-1.348,1.541,6.023,6.023,0,0,1-1.926.963,26.016,26.016,0,0,1-7.126.963c-1.733,0-2.889-.193-2.889-.385s1.156,0,2.889-.193a35.259,35.259,0,0,0,6.741-1.156,5.445,5.445,0,0,0,2.889-2.119,9.081,9.081,0,0,0,1.156-2.889,9.939,9.939,0,0,0,.385-2.118C374.752,280.993,374.367,280.8,374.559,280.8Z" transform="translate(-360.5 -280.8)"/></g><g transform="translate(19.126 99.781)"><path class="s" d="M346.885,304.448a.844.844,0,0,1,.193.578h-.385a14.693,14.693,0,0,1-.193-3.274c.193-2.119.578-3.852.77-3.852s.193,1.733,0,3.852c0,1.348-.193,2.7-.193,3.274h-.385A.844.844,0,0,1,346.885,304.448Z" transform="translate(-346.5 -297.9)"/></g><g transform="translate(19.963 98.818)"><path class="s" d="M348.216,303.37c-.193,0-.578-1.348-.963-2.889-.385-1.733-.385-3.081-.193-3.081s.578,1.348.963,2.889C348.216,302.022,348.409,303.37,348.216,303.37Z" transform="translate(-346.934 -297.4)"/></g><g transform="translate(3.912 81.641)"><path class="s" d="M346.881,288.518c0,.193-1.733.963-4.044,1.926-2.311.77-4.237,1.348-4.237,1.156s1.733-.963,4.044-1.926C344.956,288.9,346.881,288.325,346.881,288.518Z" transform="translate(-338.6 -288.481)"/></g><g transform="translate(46.445 137.144)"><path class="s" d="M407.706,317.3s-.578.385-1.541.963A26.355,26.355,0,0,1,401.351,320c-4.237,1.156-10.207,2.5-16.755,3.659-3.274.578-6.355,1.156-9.244,1.541s-5.393.77-7.7.963a13.881,13.881,0,0,1-5.2-.385c-1.156-.193-1.926-.578-1.733-.578a12.452,12.452,0,0,0,1.926.385,22.829,22.829,0,0,0,5.2,0,65.533,65.533,0,0,0,7.511-1.156c2.889-.385,5.97-.963,9.244-1.541,6.548-1.156,12.518-2.5,16.755-3.467a49.019,49.019,0,0,0,4.815-1.541A4.648,4.648,0,0,0,407.706,317.3Z" transform="translate(-360.685 -317.3)"/></g><path class="t" d="M368.585,294.9s-2.889,20.992-8.859,24.266L357.8,303.759Z" transform="translate(-316.911 -200.896)"/><path class="r" d="M359.861,274.873a11.748,11.748,0,0,1-2.5-2.889c-.385-1.348.193-4.622,1.348-5.392,1.348-.77,3.081,0,4.622.193,2.311.385,4.622-.578,7.126-.77,2.311-.193,5.2.578,5.97,2.7.193.385.193.963.77,1.156h.578c1.926-.193,3.081,1.926,3.081,3.852-.193,1.926-1.156,3.467-1.541,5.2-.963,3.852.77,8.281-.963,11.941-1.348,2.889-5.585,5.393-8.474,3.274l3.659-16.563Z" transform="translate(-317.431 -227.669)"/><path class="o" d="M378.064,382s-15.985,7.126-16.948,10.4,18.874-8.089,18.874-8.089Z" transform="translate(-313.872 -120.25)"/><g transform="translate(38.385 203.374)"><path class="u" d="M366.322,351.71c.193.193-1.926,1.541-4.622,3.081s-5.007,2.311-5.2,2.119a38.184,38.184,0,0,1,4.815-2.889C364.011,352.673,366.13,351.518,366.322,351.71Z" transform="translate(-356.5 -351.689)"/></g><g transform="translate(41.063 207.969)"><path class="u" d="M364.842,354.123c0,.193-1.541.77-3.467,1.926s-3.274,2.119-3.467,1.926,1.156-1.541,3.081-2.7C362.916,354.316,364.842,353.931,364.842,354.123Z" transform="translate(-357.891 -354.075)"/></g><g transform="translate(72.474 213.572)"><path class="u" d="M385.178,360.481c0,.193-2.7-.193-5.585-1.156-3.081-.963-5.393-2.119-5.393-2.311s2.5.578,5.585,1.541C382.674,359.518,385.178,360.288,385.178,360.481Z" transform="translate(-374.2 -356.985)"/></g><g transform="translate(73.629 210.885)"><path class="u" d="M385.392,360.232c0,.193-2.5-.385-5.585-1.733a15.692,15.692,0,0,1-5.007-2.889c.193-.193,2.5.963,5.393,2.119C383.081,359.077,385.392,360.04,385.392,360.232Z" transform="translate(-374.8 -355.589)"/></g><g transform="translate(36.957 146.966)"><g transform="translate(20.226 112.038)"><path class="u" d="M366.336,380.624c.193-.193.578.193.963.963.385.578.578,1.156.385,1.348s-.578-.193-.963-.963S366.144,380.624,366.336,380.624Z" transform="translate(-366.261 -380.575)"/></g><g transform="translate(15.102 103.011)"><path class="u" d="M363.6,375.912c.193-.193.963.77,1.541,2.118.77,1.156,1.156,2.311.963,2.5s-.963-.77-1.541-2.119A11.245,11.245,0,0,1,363.6,375.912Z" transform="translate(-363.6 -375.887)"/></g><g transform="translate(10.622 93.791)"><path class="u" d="M361.324,371.1a6.3,6.3,0,0,1,1.348,2.118c.578,1.348.963,2.311.77,2.5a6.3,6.3,0,0,1-1.348-2.118C361.517,372.448,361.132,371.293,361.324,371.1Z" transform="translate(-361.274 -371.1)"/></g><g transform="translate(6.769 84.355)"><path class="u" d="M359.325,366.2a5.972,5.972,0,0,1,1.348,2.311c.578,1.348.77,2.5.578,2.5A5.974,5.974,0,0,1,359.9,368.7C359.517,367.356,359.132,366.2,359.325,366.2Z" transform="translate(-359.273 -366.2)"/></g><g transform="translate(3.663 74.532)"><path class="u" d="M357.736,361.1a4.548,4.548,0,0,1,1.156,2.311c.385,1.348.578,2.5.385,2.5a4.548,4.548,0,0,1-1.156-2.311C357.736,362.256,357.544,361.1,357.736,361.1Z" transform="translate(-357.661 -361.1)"/></g><g transform="translate(1.156 64.518)"><path class="u" d="M356.438,355.9c.193,0,.578.963.963,2.5.385,1.348.385,2.5.193,2.5s-.578-.963-.963-2.5C356.438,357.056,356.246,355.9,356.438,355.9Z" transform="translate(-356.359 -355.9)"/></g><g transform="translate(0 54.31)"><path class="u" d="M356.031,350.6c.193,0,.385,1.156.578,2.5,0,1.348,0,2.5-.193,2.5s-.385-1.156-.578-2.5S355.838,350.6,356.031,350.6Z" transform="translate(-355.759 -350.6)"/></g><g transform="translate(0.08 43.911)"><path class="u" d="M356.378,345.2c.193,0,.193,1.156.193,2.5-.193,1.348-.385,2.5-.578,2.5s-.193-1.156-.193-2.5C355.993,346.355,356.185,345.2,356.378,345.2Z" transform="translate(-355.8 -345.2)"/></g><g transform="translate(1.301 33.896)"><path class="u" d="M357.716,340c.193,0,.193,1.156-.193,2.5a6.873,6.873,0,0,1-.963,2.5c-.193,0-.193-1.156.193-2.5C357.139,340.963,357.524,340,357.716,340Z" transform="translate(-356.434 -340)"/></g><g transform="translate(4.052 24.074)"><path class="u" d="M359.668,334.9c.193,0,0,1.156-.578,2.5s-.963,2.311-1.156,2.311,0-1.156.578-2.5A4.549,4.549,0,0,1,359.668,334.9Z" transform="translate(-357.863 -334.9)"/></g><g transform="translate(7.926 14.829)"><path class="u" d="M362.235,330.1c.193.193-.193,1.156-.77,2.5a4.2,4.2,0,0,1-1.541,2.119c-.193,0,.193-1.156.77-2.5C361.465,330.87,362.043,330.1,362.235,330.1Z" transform="translate(-359.874 -330.1)"/></g><g transform="translate(12.946 6.138)"><path class="u" d="M365.407,325.612c.193.193-.385,1.156-1.156,2.311s-1.541,2.118-1.733,1.926.385-1.156,1.156-2.311S365.214,325.419,365.407,325.612Z" transform="translate(-362.481 -325.587)"/></g><g transform="translate(18.689)"><path class="u" d="M367.268,322.4c.193.193,0,.77-.578,1.156-.385.578-.963.963-1.156.77s0-.77.578-1.156C366.69,322.593,367.075,322.4,367.268,322.4Z" transform="translate(-365.463 -322.4)"/></g></g><g transform="translate(44.506 157.944)"><g transform="translate(53.757 13.095)"><path class="d" d="M415.92,474.721c-.578.193-7.318-31.007-15.022-69.718-7.9-38.518-13.674-69.91-13.289-70.1.578-.193,7.318,31.007,15.022,69.718C410.527,443.329,416.5,474.528,415.92,474.721Z" transform="translate(-387.591 -334.9)"/></g><g transform="translate(76.868 13.095)"><path class="d" d="M427.919,474.721c-.578.193-7.318-31.007-15.022-69.718-7.9-38.518-13.674-69.91-13.289-70.1.578-.193,7.318,31.007,15.022,69.718C422.527,443.329,428.5,474.528,427.919,474.721Z" transform="translate(-399.591 -334.9)"/></g><rect class="d" width="69.525" height="13.096" transform="translate(12.753)"/><g transform="translate(0 6.74)"><g transform="translate(18.681)"><path class="d" d="M394.65,331.6c.578,0-4.815,32.933-11.748,73.184-6.933,40.444-13.1,72.992-13.481,72.992-.578,0,4.815-32.933,11.748-73.377C388.1,364.148,394.072,331.408,394.65,331.6Z" transform="translate(-369.378 -331.6)"/></g><path class="d" d="M384.95,331.6c.578,0-4.815,32.933-11.748,73.184-6.933,40.444-13.1,72.992-13.481,72.992-.578,0,4.815-32.933,11.748-73.377C378.4,364.148,384.565,331.408,384.95,331.6Z" transform="translate(-359.678 -331.6)"/></g><path class="d" d="M393.8,365.2h22.918l1.155,5.393H394.763Z" transform="translate(-328.084 -293.749)"/><g transform="translate(2.546 138.079)"><path class="d" d="M380.066,400c0,.578-4.044,1.541-9.437,2.311-5.2.77-9.63.963-9.63.385s4.044-1.541,9.437-2.311C375.637,399.8,379.874,399.611,380.066,400Z" transform="translate(-361 -399.796)"/></g><g transform="translate(4.472 125.811)"><path class="d" d="M381.066,393.762c0,.578-4.044,1.541-9.437,2.311-5.2.77-9.63.963-9.63.385s4.044-1.541,9.437-2.311C376.637,393.376,381.066,393.184,381.066,393.762Z" transform="translate(-362 -393.426)"/></g><g transform="translate(6.591 111.752)"><path class="d" d="M382.166,386.461c0,.578-4.044,1.541-9.437,2.311-5.2.77-9.63.963-9.63.385s4.044-1.541,9.437-2.311C377.737,386.076,382.166,385.884,382.166,386.461Z" transform="translate(-363.1 -386.126)"/></g><g transform="translate(9.094 97.692)"><path class="d" d="M383.466,379.162c0,.578-4.044,1.541-9.437,2.311-5.2.77-9.63.963-9.63.385s4.044-1.541,9.437-2.311C379.037,378.776,383.274,378.584,383.466,379.162Z" transform="translate(-364.4 -378.826)"/></g><g transform="translate(10.828 85.174)"><path class="d" d="M384.366,372.662c0,.578-4.044,1.541-9.437,2.311-5.2.77-9.63.963-9.63.385s4.044-1.541,9.437-2.311C379.937,372.276,384.174,372.084,384.366,372.662Z" transform="translate(-365.3 -372.326)"/></g><g transform="translate(13.909 72.463)"><path class="d" d="M385.966,366.062c0,.578-4.044,1.541-9.437,2.311-5.2.77-9.63.963-9.63.385s4.044-1.541,9.437-2.311S385.966,365.484,385.966,366.062Z" transform="translate(-366.9 -365.726)"/></g><g transform="translate(16.027 58.789)"><path class="d" d="M387.066,358.961c0,.578-4.044,1.541-9.437,2.311-5.2.77-9.63.963-9.63.385s4.044-1.541,9.437-2.311C382.637,358.576,387.066,358.384,387.066,358.961Z" transform="translate(-368 -358.626)"/></g><g transform="translate(18.531 43.767)"><path class="d" d="M388.366,351.162c0,.578-4.044,1.541-9.437,2.311-5.2.77-9.63.963-9.63.385s4.044-1.541,9.437-2.311C383.937,350.776,388.366,350.584,388.366,351.162Z" transform="translate(-369.3 -350.826)"/></g><g transform="translate(21.805 27.012)"><path class="d" d="M390.066,342.461c0,.578-4.044,1.541-9.437,2.311-5.2.77-9.63.963-9.63.385s4.044-1.541,9.437-2.311C385.637,342.076,389.874,341.884,390.066,342.461Z" transform="translate(-371 -342.126)"/></g></g></g><g transform="translate(275.887 585.1)"><path class="p" d="M54.62,332.97s-3.081,9.052-.963,15.6,4.237,4.237,4.237,4.237a10.514,10.514,0,0,1-1.156-6.163c.385-3.659,1.156-4.815,1.156-4.815l1.733,7.7a39.139,39.139,0,0,0,1.156-3.852c.578-2.311-1.156-6.548-.77-8.859.385-2.118,1.156-4.622,1.156-4.622Z" transform="translate(-52.914 -189.105)"/><path class="p" d="M120.007,278.826l.578-3.467s-3.467-7.7-2.5-9.244A38.413,38.413,0,0,1,122.7,261.3l2.118.385s3.852,5.007,4.237,6.741-1.926,7.7-3.467,12.326Z" transform="translate(7.268 -254.752)"/><path class="v" d="M119.5,260.789l1.926,15.792,2.118-.385-2.118-15.6-1.156-2.7Z" transform="translate(8.738 -257.9)"/><path class="p" d="M119.2,263.419l2.311-2.119s1.156,2.311-1.348,4.815Z" transform="translate(8.461 -254.752)"/><g transform="translate(70.654 270.974)"><path class="p" d="M93.744,398.6l.193,5.778-4.044.578L89.7,398.6Z" transform="translate(-89.507 -398.6)"/><path class="o" d="M89.985,402.72s17.333-3.081,19.837-.963S89.6,405.8,89.6,405.8Z" transform="translate(-89.6 -396.365)"/></g><g transform="translate(4.21 247.093)"><path class="p" d="M64.011,389.667,59.2,392.941l-2.7-3.274,5.393-3.467Z" transform="translate(-53.804 -386.2)"/><path class="o" d="M57.8,388s11.555,13.1,11.17,16.563c-.578,3.274-13.867-15.215-13.867-15.215Z" transform="translate(-55.1 -384.533)"/></g><path class="f" d="M130.955,323.9s14.444,13.289,14.829,62.977c.193,49.688-17.141,82.621-17.141,82.621H116.51s20.029-62.4-2.5-103.614c0,0-7.511,48.148-47.377,84.932L57,440.61S86.466,403.632,86.659,357.6c0-9.052,1.541-13.867-1.541-24.074Z" transform="translate(-49.131 -196.79)"/><path class="m" d="M126.007,318.418s37.94-10.207,47.57-36.785l5.393-12.133,7.318,2.5s-1.926,48.725-48.918,62.014l-.77,2.889a80.582,80.582,0,0,0-.385,38.9l4.815,9.822L90.377,396.995s-6.355-24.844-.385-51.036c0,0-10.978-2.5-29.466,49.3L53.4,393.913s10.207-69.525,46.992-79.155Z" transform="translate(-52.464 -247.16)"/><g transform="translate(5.513 37.555)"><path class="p" d="M99.463,280.1l2.889,13.289a5.648,5.648,0,0,1-4.237,6.548l-1.733.385-.578,9.244L82.9,308.6l1.926-26.192Z" transform="translate(-30.663 -274.9)"/><path class="r" d="M88.23,303.343s5.2-2.311,5.393-6.163c0,0-6.741-4.237-4.43-5.97s5.97,2.5,5.97,2.5-1.926-5.97-1.156-7.511c0,0,9.437.578,8.281-5.007,0,0-2.5-2.5-8.474-3.274S83.8,286.972,83.8,286.972Z" transform="translate(-29.83 -276.958)"/><path class="r" d="M97.9,278.941A7.741,7.741,0,0,0,92.89,277.4a15.282,15.282,0,0,0-11.748,5.585A15.107,15.107,0,0,0,78.06,295.7a9.08,9.08,0,0,0,1.156,2.889c1.541,2.311,4.237,3.274,6.741,4.044,2.311.77,6.163,2.119,8.089.77,0,0-2.889-9.244-1.156-14.829A35.418,35.418,0,0,1,97.9,278.941Z" transform="translate(-35.452 -277.4)"/><path class="r" d="M99.54,284.079c-3.467-2.7-9.244-1.926-11.748,1.541-1.733,2.311-2.118,5.585-4.43,7.318-2.7,2.119-6.548,1.156-9.822.77-5.97-.385-12.326,2.119-15.6,7.126s-2.889,12.326,1.541,16.37a14.156,14.156,0,0,0,10.978,3.274c3.852-.193,7.7-1.733,11.363-3.081,5.2-2.119,10.785-5.393,12.518-10.785,1.156-3.659.193-7.9.77-11.748.193-1.156.578-2.5,1.541-2.889.77-.385,1.926,0,2.7,0,2.311-.193,3.659-2.889,2.889-5.007a7.134,7.134,0,0,0-5.007-4.044" transform="translate(-55.777 -272.717)"/></g><path class="f" d="M88.652,293.5a47.346,47.346,0,0,0-9.244,7.126c-2.7,2.889-4.815,6.355-5.007,10.4,0,.963,0,2.118.77,2.7a4.828,4.828,0,0,0,1.348.77c4.044,1.156,8.089-1.348,11.555-3.659,5.778-3.852,11.748-7.7,16.178-13.1a1.277,1.277,0,0,0,.385-1.348,2.657,2.657,0,0,0-.77-.578c-3.852-1.348-10.978-1.156-15.215-2.311" transform="translate(-33.02 -224.938)"/><g transform="translate(38.089 68.369)"><path class="w" d="M106.6,298.407a2.384,2.384,0,0,0-.385.578,6.313,6.313,0,0,1-1.156,1.541c-.193.385-.578.77-.77,1.156a8.375,8.375,0,0,0-1.156,1.348c-.385.385-.77.963-1.348,1.541a11.62,11.62,0,0,1-1.541,1.541,40.643,40.643,0,0,1-8.474,6.741,26.552,26.552,0,0,1-5.778,2.7,20.008,20.008,0,0,1-6.741,1.348H75.79a3.107,3.107,0,0,1-1.733-.578A2.589,2.589,0,0,1,72.9,314.97a5.368,5.368,0,0,1,.193-3.467c.385-.963.578-2.118.963-2.889a17.665,17.665,0,0,1,3.274-4.815c1.156-1.348,2.311-2.5,3.467-3.659,2.118-2.119,4.044-3.852,5.393-5.007.578-.578,1.156-.963,1.541-1.348a2.385,2.385,0,0,0,.578-.385,2.383,2.383,0,0,0-.385.578l-1.348,1.348c-1.156,1.156-3.081,2.889-5.2,5.007-1.156,1.156-2.118,2.311-3.274,3.659a17.227,17.227,0,0,0-3.081,4.815c-.385.963-.578,1.926-.963,2.889a3.825,3.825,0,0,0-.193,2.889,2.854,2.854,0,0,0,2.311,1.541,10.47,10.47,0,0,0,3.467,0,35.871,35.871,0,0,0,6.548-1.348,37.633,37.633,0,0,0,5.585-2.7,44.343,44.343,0,0,0,8.281-6.548l1.541-1.541c.385-.578.963-.963,1.348-1.541.385-.385.77-.963,1.156-1.348s.578-.77.963-1.156a6.313,6.313,0,0,0,1.156-1.541C106.412,298.6,106.412,298.407,106.6,298.407Z" transform="translate(-72.691 -293.4)"/></g><g transform="translate(43.383 76.651)"><path class="w" d="M104.059,298.085s-.578.385-1.733,1.348a24.6,24.6,0,0,0-3.659,4.43,65.7,65.7,0,0,0-3.274,7.9c-.578,1.541-1.156,3.081-1.926,4.815a18.451,18.451,0,0,1-3.274,4.622,13.3,13.3,0,0,1-5.2,3.081,14.188,14.188,0,0,1-2.7.77,3.849,3.849,0,0,1-2.889-.385,2.776,2.776,0,0,1-1.733-2.118,5.688,5.688,0,0,1-.385-2.5A20.257,20.257,0,0,1,78.444,316l.385.193a1.757,1.757,0,0,1-1.541.578,1.949,1.949,0,0,1-1.348-.77,2.247,2.247,0,0,1-.385-2.118,3.136,3.136,0,0,1,.578-1.156l.385-.385a9.182,9.182,0,0,0-.77,1.541,2.372,2.372,0,0,0,.385,1.926,3.136,3.136,0,0,0,1.156.578c.385,0,.963,0,1.156-.385l.963-1.156-.578,1.348a22.511,22.511,0,0,0-1.156,3.852,3.81,3.81,0,0,0,.385,2.119,3.4,3.4,0,0,0,1.541,1.733,3.662,3.662,0,0,0,2.5.193,19.774,19.774,0,0,0,2.7-.77,12.66,12.66,0,0,0,5.007-3.081,16.713,16.713,0,0,0,3.081-4.43c.77-1.541,1.348-3.081,2.118-4.622a53.665,53.665,0,0,1,3.467-8.089,15.349,15.349,0,0,1,3.852-4.43c.193-.193.578-.385.77-.578s.385-.193.578-.385C103.866,298.085,104.059,298.085,104.059,298.085Z" transform="translate(-75.44 -297.7)"/></g><path class="c" d="M79.674,324.237s-3.852,11.555,5.585,5.2c9.63-6.548,10.978-30.237,10.978-30.237S89.689,322.889,79.674,324.237Z" transform="translate(-28.857 -219.66)"/><g transform="translate(76.624 215.536)"><path class="x" d="M103.87,370.172c0,.193-2.5.193-5.585.578s-5.393.963-5.585.77c0-.193,2.311-1.156,5.393-1.541C101.367,369.594,103.87,369.979,103.87,370.172Z" transform="translate(-92.7 -369.814)"/></g><g transform="translate(77.009 211.833)"><path class="x" d="M105.226,367.908a8.71,8.71,0,0,1-1.541,1.156,12.045,12.045,0,0,1-4.43,1.348,17.38,17.38,0,0,1-4.622-.193c-1.156-.385-1.733-.578-1.733-.77s2.889.77,6.355.193A25.858,25.858,0,0,0,105.226,367.908Z" transform="translate(-92.9 -367.891)"/></g><g transform="translate(38.254 199.331)"><path class="x" d="M78.6,368.911c0,.193-2.118-.77-3.852-3.081-1.733-2.119-2.118-4.43-1.926-4.43s.963,1.926,2.5,4.044C76.866,367.37,78.6,368.718,78.6,368.911Z" transform="translate(-72.777 -361.4)"/></g><g transform="translate(36.373 203.724)"><path class="x" d="M78.348,367.955c-.193,0-.193-.385-.77-.77a12.225,12.225,0,0,0-2.311-1.348,25.453,25.453,0,0,1-3.467-2.118c0-.193,1.733.385,3.659,1.541a12,12,0,0,1,2.311,1.733C78.541,367.377,78.541,367.955,78.348,367.955Z" transform="translate(-71.8 -363.681)"/></g><g transform="translate(56.402 164.087)"><path class="x" d="M101.652,351.767a7.507,7.507,0,0,1-3.081-.385c-1.926-.578-4.237-1.926-6.933-3.081-2.7-1.348-5.007-2.5-6.741-3.467s-2.7-1.541-2.7-1.733c0,0,1.156.385,2.889,1.156s4.237,1.926,6.741,3.274A67.827,67.827,0,0,0,98.57,350.8C100.5,351.574,101.652,351.574,101.652,351.767Z" transform="translate(-82.2 -343.1)"/></g></g><g class="n" transform="translate(557.415 367.51)"><path class="d" d="M201.995,147.386c-2.7,2.118-3.467,6.355-2.5,9.63.963,3.467,3.081,6.355,5.2,9.052,5.393,6.933,11.17,13.866,17.333,20.415,2.889,3.274,5.97,6.355,8.281,10.015,9.437,14.637,6.355,33.9,8.089,51.229.385,3.852,2.311,8.859,6.163,8.667,1.541,0,2.7-.77,4.044-1.733a31.566,31.566,0,0,0,13.289-25.037c0-2.889-.193-5.778.578-8.474,1.348-3.852,4.622-6.355,7.318-9.244,5.585-6.163,8.089-14.252,10.592-22.148,2.7-9.052,5.393-19.066,1.156-27.54-3.081-5.97-9.244-9.63-15.407-12.133-20.222-8.089-42.755-5.007-64.325-1.926" transform="translate(-199.094 -144.919)"/></g><g transform="translate(538.644 278.299)"><g transform="translate(70.783 195.676)"><path class="p" d="M230.437,200.2l.193,5.778-4.237.578L226.2,200.2Z" transform="translate(-226.007 -200.2)"/><path class="o" d="M226.485,204.32s17.333-3.081,19.837-.963S226.1,207.4,226.1,207.4Z" transform="translate(-226.1 -197.965)"/></g><g transform="translate(79.064 161.973)"><path class="p" d="M238.141,184.819l-2.889,5.007-3.852-1.733,3.274-5.393Z" transform="translate(-229.474 -182.7)"/><path class="o" d="M232.326,185.5s16.178,6.741,17.141,10.015-19.066-7.7-19.066-7.7Z" transform="translate(-230.4 -180.107)"/></g><path class="m" d="M269.567,123.061c6.741-4.237-1.926-7.9,6.163-7.318,1.733,0,3.852.193,5.2-.77,1.926-1.348,2.311-4.044,1.733-6.355A12.949,12.949,0,0,0,270.529,98.6c-7.7-.193-14.252,6.355-21.955,5.97-2.889-.193-5.585-1.348-8.474-2.118-8.089-2.5-18.681-1.156-22.726,6.355-1.156,1.926-1.541,4.237-2.889,6.163-3.467,5.585-10.785,6.548-16.178,10.015a20.1,20.1,0,0,0-8.859,18.489c.385,2.889,1.348,6.163,3.852,7.9,0,0,8.281,10.592,26.963,0S269.567,123.061,269.567,123.061Z" transform="translate(-189.347 -98.598)"/><path class="f" d="M222.9,127.248c2.889-3.274,47.377,45.451,57.007,50.651,9.437,5.2,7.318,0,7.318,0l-19.066-21.185L231.567,115.5Z" transform="translate(-158.28 -82.948)"/><path class="l" d="M249.259,113.217a23.345,23.345,0,0,0-24.652,2.7l-.193.193c-12.326,9.822-27.733,29.081-23.111,62.014l43.333-5.2s-6.163-7.318,1.733-29.081c4.237-11.941,8.089-23.111,8.089-23.111Z" transform="translate(-179.054 -87.213)"/><path class="f" d="M213.88,126.89s3.659,38.9,18.3,44.1,41.022,5.2,41.022,5.2,2.118-2.7-26-9.437c-1.156-.193-2.311-.578-3.659-.77,0,0-15.985-9.244-15.022-37.363a25.81,25.81,0,0,0-.193-3.852c-.578-4.044-2.7-12.518-8.474-11.748C212.147,113.987,213.88,126.89,213.88,126.89Z" transform="translate(-166.786 -85.286)"/><path class="q" d="M200.9,148.129s32.933,39.674,39.674,51.422c6.548,11.748,3.659,53.54,5.778,54.7s10.592,0,10.592,0l.578-31.585.385-16.563a60.7,60.7,0,0,0-4.044-23.3L245,159.3s36.4,2.311,30.044,20.607c-8.089,22.918-15.407,40.444-15.407,40.444l7.318,2.889s34.474-43.333,26.385-62.4-49.111-17.526-49.111-17.526Z" transform="translate(-178.65 -57.222)"/><g transform="translate(65.474 6.886)"><path class="p" d="M251.378,110.118,245.6,122.444a5.477,5.477,0,0,1-7.318,2.5l-1.541-.77-2.7,3.081a5.181,5.181,0,0,1-7.318.385l-1.348-1.156a6.067,6.067,0,0,1-.578-8.474L238.282,102.8Z" transform="translate(-223.344 -101.593)"/><path class="m" d="M226.9,121.291s5.393,1.348,7.9-1.541c0,0-2.889-7.318,0-7.511,2.889,0,3.081,5.585,3.081,5.585s2.118-5.97,3.659-6.548c0,0,7.126,6.355,9.63,1.156,0,0-.385-3.467-4.622-7.7s-12.711-1.926-12.711-1.926Z" transform="translate(-220.051 -102.173)"/></g><g transform="translate(65.197 24.271)"><path class="f" d="M233.215,120.252s0,.193-.385.578a3.629,3.629,0,0,1-1.733.77,14.337,14.337,0,0,1-2.889,0,3.106,3.106,0,0,1-1.733-.578,4.5,4.5,0,0,1-1.348-1.348,10.274,10.274,0,0,1-1.926-5.97c0-1.541.385-2.5.578-2.5s0,.963,0,2.5a10.241,10.241,0,0,0,1.926,5.585l1.156,1.156a3.571,3.571,0,0,0,1.348.385,12.583,12.583,0,0,0,2.7,0,3.846,3.846,0,0,0,1.733-.385A.844.844,0,0,0,233.215,120.252Z" transform="translate(-223.2 -111.2)"/></g><g transform="translate(35.346 37.559)"><path class="f" d="M225.033,118.1a20.01,20.01,0,0,1-1.156,1.926c-.77,1.348-1.733,3.081-3.081,5.2a125.631,125.631,0,0,0-8.859,17.718,58.112,58.112,0,0,0-2.889,10.592,51.651,51.651,0,0,0-.77,8.859,43.9,43.9,0,0,0,.385,5.97c.193,1.348.385,2.118.385,2.118a1.491,1.491,0,0,0-.193-.578,5.954,5.954,0,0,0-.385-1.541,35.012,35.012,0,0,1-.77-5.97,52.955,52.955,0,0,1,.578-9.052,62.626,62.626,0,0,1,2.889-10.592,105.162,105.162,0,0,1,9.244-17.718c1.348-2.118,2.5-3.852,3.274-5.007C224.455,118.678,224.841,118.1,225.033,118.1Z" transform="translate(-207.7 -118.1)"/></g><path class="m" d="M222.4,118.278a18.283,18.283,0,0,0,8.667,3.081c4.622.193,7.511-19.259,7.511-19.259Z" transform="translate(-158.743 -95.355)"/><g transform="translate(39.583 92.448)"><path class="y" d="M215.485,146.6a3.848,3.848,0,0,1,.193,2.118,12.435,12.435,0,0,1-1.156,4.815,11.513,11.513,0,0,1-2.889,4.044,10.922,10.922,0,0,1-1.733,1.156s.578-.578,1.348-1.541a18.481,18.481,0,0,0,2.5-4.044,17.261,17.261,0,0,0,1.348-4.622C215.293,147.37,215.293,146.6,215.485,146.6Z" transform="translate(-209.9 -146.6)"/></g><g transform="translate(45.746 107.855)"><path class="y" d="M213.1,154.6a5.7,5.7,0,0,1,.578.77c.385.578.963,1.156,1.733,2.118q2.311,2.889,6.355,8.089a94.237,94.237,0,0,1,8.089,12.9,53.382,53.382,0,0,1,3.467,8.281,75.008,75.008,0,0,1,2.311,9.437,247.794,247.794,0,0,1,2.889,33.9c0,4.43,0,7.9-.193,10.4,0,1.156-.193,2.118-.193,2.889,0,.578,0,.963-.193.963V240.5c0-2.5,0-5.97-.193-10.207a249.768,249.768,0,0,0-3.081-33.7,74.675,74.675,0,0,0-2.118-9.437,53.383,53.383,0,0,0-3.467-8.281,84.039,84.039,0,0,0-7.9-12.9c-2.5-3.467-4.622-6.355-6.163-8.281q-1.156-1.444-1.733-2.311C213.293,154.985,213.1,154.793,213.1,154.6Z" transform="translate(-213.1 -154.6)"/></g><g transform="translate(64.878 97.262)"><path class="y" d="M223.161,149.1c.193,0,.385,1.156.963,2.311.385,1.348.963,2.311.77,2.311-.193.193-.963-.77-1.541-2.118C222.968,150.256,222.968,149.1,223.161,149.1Z" transform="translate(-223.034 -149.1)"/></g><g transform="translate(57.668 87.796)"><path class="y" d="M224.894,149.029c-.193.193-1.348-.963-2.889-2.311s-2.889-2.311-2.7-2.5,1.541.578,3.274,1.926C224.124,147.488,225.087,148.836,224.894,149.029Z" transform="translate(-219.29 -144.185)"/></g><g transform="translate(70.975 97.425)"><path class="y" d="M226.2,152.1a2.108,2.108,0,0,1,.77-.385,22.752,22.752,0,0,0,2.5-1.156,28.328,28.328,0,0,1,10.207-1.348,31.421,31.421,0,0,1,6.933,1.348,17.137,17.137,0,0,1,7.126,4.237,13.3,13.3,0,0,1,2.5,3.852,17.916,17.916,0,0,1,.963,4.622,38.671,38.671,0,0,1,.193,4.815,45.219,45.219,0,0,1-.193,5.007,37.612,37.612,0,0,1-2.311,9.437c-1.156,2.889-2.5,5.585-3.659,8.281q-3.756,7.8-6.355,13.866c-1.926,3.852-3.274,7.126-4.43,9.244-.578,1.156-1.156,1.926-1.348,2.311a5.694,5.694,0,0,1-.578.77l.385-.77a25.2,25.2,0,0,0,1.348-2.5c1.156-2.118,2.5-5.393,4.237-9.437s3.852-8.667,6.355-13.866c1.156-2.7,2.5-5.393,3.659-8.281a36.148,36.148,0,0,0,2.311-9.244,40.248,40.248,0,0,0,.193-4.815,35.59,35.59,0,0,0-.193-4.622,16.489,16.489,0,0,0-.963-4.43,14.65,14.65,0,0,0-2.311-3.659,17.536,17.536,0,0,0-6.741-4.044,29.421,29.421,0,0,0-6.933-1.348,28.483,28.483,0,0,0-10.015,1.156C227.356,151.525,226.2,152.3,226.2,152.1Z" transform="translate(-226.2 -149.184)"/></g></g><g class="n" transform="translate(599.99 554.237)"><path class="d" d="M221.2,244.427a2.982,2.982,0,0,1,1.541-2.118,4.935,4.935,0,0,1,4.044,0c1.926,1.156,2.889,3.659,3.467,5.778.578,2.311.963,4.622,2.311,6.548a3.073,3.073,0,0,0,1.733,1.348c1.348.193,2.311-.77,3.274-1.733,2.5-2.7,5.393-5.393,8.859-6.355s7.9,0,9.822,3.274a14.927,14.927,0,0,1,1.348,5.778c1.156,15.985,2.118,31.97,3.274,47.955.578,7.511.963,15.022-1.156,22.148-1.926,6.355-20.415,25.037-29.274,25.037" transform="translate(-221.2 -241.875)"/></g><g transform="translate(534.289 558.432)"><g transform="translate(7.153 8.371)"><path class="p" d="M250.5,326.8l-4.237,86.088L233.94,470.28l-5.585-1.541,4.815-57.584-9.63-59.125L214.874,407.3l-19.066,63.17-5.007.193,9.052-62.977-2.5-76.651Z" transform="translate(-190.8 -175.809)"/><path class="o" d="M265.466,252.548l-5.585,44.1-27.348,26.577-24.652.385-8.859,15.6,3.659,14.059a47.1,47.1,0,0,1-2.5,30.814L194.4,401.42l53.733,6.163c1.733-40.829.963-44.1-5.778-67.407l31.777-41.022V251.2Z" transform="translate(-187.467 -245.808)"/><path class="o" d="M236.351,253.6c-2.7,1.541-19.837,45.451-19.837,45.451l.963,28.118L201.3,330.058V297.9l28.118-49.5Z" transform="translate(-181.078 -248.4)"/></g><g transform="translate(0 55.54)"><path class="p" d="M219.052,274.5l5.007,12.711a5.549,5.549,0,0,1-3.081,7.126l-1.733.578.77,9.244-12.9,1.156L204.8,279.122Z" transform="translate(-170.684 -271.403)"/><path class="q" d="M211.741,300.061s5.007-4.237,4.622-8.089c0,0-7.318-3.081-5.393-5.2s6.163,1.541,6.163,1.541-2.889-5.585-2.311-7.126c0,0,9.437-.77,7.511-6.355,0,0-2.889-2.118-8.859-1.926S205,283.5,205,283.5Z" transform="translate(-170.499 -272.89)"/><path class="q" d="M231.024,273.486a18.606,18.606,0,0,0-16.37,3.659,18.05,18.05,0,0,0-6.355,15.407c.385,4.044,1.926,8.281.385,11.941a13.347,13.347,0,0,1-3.852,4.815c-4.43,4.044-9.244,8.089-12.711,13.1s-5.778,11.17-4.815,17.141a14.707,14.707,0,0,0,3.081,7.126,20.612,20.612,0,0,1,2.7,3.081c2.7,4.044,1.156,9.63,2.889,14.252,2.119,5.778,9.052,8.474,15.215,9.052,8.474.77,17.718-.963,24.074-6.741s8.667-16.178,3.852-23.3c-2.311-3.467-6.548-6.548-6.163-10.785.193-2.7,2.311-4.622,3.274-7.126a11.922,11.922,0,0,0-3.467-14.252c-1.541-1.156-3.467-1.926-4.815-3.274s-2.311-3.467-1.541-5.2c.578-1.348,2.118-2.119,2.889-3.467.963-1.926-.193-4.43-1.733-6.163s-3.274-3.467-3.467-5.585a7.561,7.561,0,0,1,1.541-4.815c1.541-2.889,3.081-5.97,4.622-8.859" transform="translate(-187.086 -272.892)"/></g><path class="f" d="M196.052,329,192.2,359.044l28.889,4.622,1.348-11.941,1.541,11.748h28.889l-3.081-28.311Z" transform="translate(-182.351 -165.401)"/><path class="o" d="M191.563,400.1s17.526,0,19.644,2.5c2.118,2.7-20.607.385-20.607.385Z" transform="translate(-183.832 -99.569)"/><path class="o" d="M209.785,401.62s17.333-3.081,19.837-.963S209.4,404.7,209.4,404.7Z" transform="translate(-166.425 -99.742)"/><g transform="translate(31.997 182.229)"><path class="x" d="M222.959,346.236c-.193.193-4.237-1.733-9.63-3.852-5.2-2.118-9.63-3.467-9.63-3.659s1.156.193,2.889.578c1.733.578,4.237,1.348,6.933,2.311a45.453,45.453,0,0,1,6.741,3.081C222,345.658,222.959,346.236,222.959,346.236Z" transform="translate(-203.7 -338.673)"/></g><g transform="translate(9.657 190.482)"><path class="x" d="M221.759,347.661c0,.193-1.733-.193-4.237-.77-2.7-.578-6.355-1.156-10.4-1.733s-7.9-.963-10.592-1.348-4.43-.578-4.43-.77,1.733,0,4.43.193,6.548.578,10.592,1.156,7.9,1.348,10.4,1.926C220.218,346.89,221.759,347.468,221.759,347.661Z" transform="translate(-192.1 -342.959)"/></g><g transform="translate(40.856 193.643)"><path class="x" d="M237.189,344.793c0,.193-1.541.193-4.237.385s-6.355.385-10.207.578c-4.044.193-7.7.578-10.207.77s-4.237.193-4.237.193c0-.193,1.541-.385,4.237-.77s6.355-.77,10.207-.963c4.044-.193,7.7-.385,10.4-.385C235.455,344.6,237.189,344.6,237.189,344.793Z" transform="translate(-208.3 -344.6)"/></g><g transform="translate(58.117 172.266)"><path class="x" d="M227.735,338.122a7.907,7.907,0,0,1-1.733.77,8.252,8.252,0,0,1-4.622-.578,7.931,7.931,0,0,1-3.467-3.081c-.578-.963-.77-1.733-.578-1.733s.385.578.963,1.541a7.932,7.932,0,0,0,3.274,2.7,9.031,9.031,0,0,0,4.237.77C226.964,338.122,227.542,337.93,227.735,338.122Z" transform="translate(-217.263 -333.5)"/></g><g transform="translate(64.495 177.851)"><path class="x" d="M222.935,357.2c-.193,0-.963-4.622-1.541-10.4s-.963-10.4-.77-10.4.963,4.622,1.541,10.4S223.128,357.2,222.935,357.2Z" transform="translate(-220.574 -336.4)"/></g><g transform="translate(16.59 241.933)"><path class="z" d="M195.7,369.724c0-.193,1.541.193,3.467.77s3.467.963,3.467,1.156-1.733.193-3.659-.385A7.931,7.931,0,0,1,195.7,369.724Z" transform="translate(-195.7 -369.674)"/></g><g transform="translate(16.397 241.326)"><path class="z" d="M203.3,369.631c0,.193-1.733.77-3.852.578-2.118,0-3.852-.578-3.852-.77s1.733,0,3.852.193C201.57,369.631,203.111,369.438,203.3,369.631Z" transform="translate(-195.6 -369.359)"/></g><g transform="translate(51.064 242.481)"><path class="z" d="M220.726,370.038c0,.193-1.541.77-3.467.963-1.926.385-3.659.193-3.659,0s1.541-.578,3.467-.77S220.533,369.846,220.726,370.038Z" transform="translate(-213.6 -369.959)"/></g><g transform="translate(51.641 240.951)"><path class="z" d="M218.522,369.233a6.3,6.3,0,0,1-2.118,1.348c-1.348.578-2.311.963-2.5.77,0-.193.77-.77,2.118-1.348C217.367,369.233,218.33,369.041,218.522,369.233Z" transform="translate(-213.9 -369.164)"/></g><path class="p" d="M221.385,257.625S228.9,253.58,228.9,253c-.385-1.541-4.43.385-4.43.385s6.163-6.355,5.2-7.318c-.578-.578-4.43,2.7-4.43,2.7s2.311-3.852,1.541-4.622-4.237,3.659-4.237,3.659,1.348-2.889.578-3.659c-.578-.578-7.318,11.17-7.318,11.17Z" transform="translate(-160.499 -244.053)"/><path class="p" d="M233.229,258.752s-3.274-7.9-2.7-8.281c1.156-.963,3.081,3.081,3.081,3.081s-.578-8.859.77-9.052c.77,0,1.541,4.815,1.541,4.815s.578-4.43,1.733-4.622.963,5.585.963,5.585.77-3.081,1.926-3.081c.77,0-1.541,13.289-1.541,13.289Z" transform="translate(-146.922 -243.64)"/></g><g transform="translate(382.363 707.956)"><g transform="translate(68.37 2.905)"><path class="aa" d="M143.7,371.348,163.537,323.2s54.888,18.489,54.31,19.644-23.881,48.918-23.881,48.918Z" transform="translate(-143.7 -323.2)"/><g transform="translate(12.711 7.896)"><path class="x" d="M167.055,327.3a.6.6,0,0,1-.193.385,4.209,4.209,0,0,0-.578.963,37.382,37.382,0,0,0-1.926,3.274c-1.733,2.889-3.852,6.741-6.355,11.17-2.311,4.43-4.237,8.474-5.585,11.555a34.237,34.237,0,0,1-1.541,3.467,3.254,3.254,0,0,0-.385.963.6.6,0,0,0-.193.385.6.6,0,0,1,.193-.385c.193-.193.193-.578.385-.963.385-.77.77-2.118,1.541-3.659,1.348-3.081,3.274-7.126,5.585-11.555s4.622-8.281,6.355-11.17c.963-1.348,1.541-2.5,2.118-3.274.193-.385.385-.578.578-.963C166.863,327.3,167.055,327.3,167.055,327.3Z" transform="translate(-150.3 -327.3)"/></g><g transform="translate(24.266 6.741)"><path class="x" d="M187.885,341.529a.6.6,0,0,1-.385-.193c-.193-.193-.578-.193-.963-.385-.77-.385-1.926-.77-3.467-1.541-2.889-1.156-6.741-3.081-11.17-5.007-4.237-2.119-8.089-3.852-10.978-5.393-1.348-.77-2.5-1.348-3.274-1.733-.385-.193-.578-.385-.963-.385a.6.6,0,0,0-.385-.193.6.6,0,0,1,.385.193c.193.193.578.193.963.385.77.385,1.926.963,3.274,1.541,2.889,1.348,6.741,3.274,10.978,5.2s8.089,3.852,10.978,5.2c1.348.578,2.5,1.156,3.274,1.541.385.193.578.385.963.385A2.108,2.108,0,0,1,187.885,341.529Z" transform="translate(-156.3 -326.7)"/></g><g transform="translate(37.555 16.563)"><path class="x" d="M184.77,331.8a.6.6,0,0,1-.193.385,9.388,9.388,0,0,0-.578,1.348c-.578,1.156-1.348,2.7-2.5,4.622-2.118,3.852-5.007,9.244-8.089,15.215s-5.585,11.555-7.318,15.6c-.963,1.926-1.541,3.659-2.118,4.815a9.391,9.391,0,0,1-.578,1.348l-.193.385a.6.6,0,0,1,.193-.385,6.993,6.993,0,0,1,.578-1.348c.385-1.156,1.156-2.889,1.926-4.815,1.733-4.044,4.237-9.63,7.318-15.6s5.97-11.363,8.089-15.215c1.156-1.926,1.926-3.467,2.5-4.622a11.421,11.421,0,0,1,.77-1.156A1.49,1.49,0,0,0,184.77,331.8Z" transform="translate(-163.2 -331.8)"/></g><g transform="translate(27.151 11.363)"><path class="x" d="M188.424,342.967s-6.933-2.889-15.407-6.741-15.407-6.933-15.215-7.126c0,0,6.933,2.889,15.407,6.741S188.424,342.967,188.424,342.967Z" transform="translate(-157.798 -329.1)"/></g><g transform="translate(26.946 16.563)"><path class="x" d="M163.871,334.689s-1.348-.77-3.081-1.541-3.274-1.156-3.081-1.348a12.943,12.943,0,0,1,3.274.963A20.546,20.546,0,0,1,163.871,334.689Z" transform="translate(-157.692 -331.8)"/></g><g transform="translate(25.615 17.718)"><path class="x" d="M163.355,335.1s-1.348-.77-3.081-1.541S157,332.593,157,332.4a10.317,10.317,0,0,1,3.467.77A10.578,10.578,0,0,1,163.355,335.1Z" transform="translate(-157 -332.4)"/></g><g transform="translate(25.406 19.066)"><path class="x" d="M163.071,336.181s-1.348-.77-3.081-1.541-3.274-1.348-3.081-1.541a22.431,22.431,0,0,1,3.274,1.156A20.545,20.545,0,0,1,163.071,336.181Z" transform="translate(-156.892 -333.1)"/></g><g transform="translate(36.67 19.366)"><path class="x" d="M164.011,333.534a.672.672,0,0,1,.385-.193c.193,0,.77-.193,1.156,0a1.442,1.442,0,0,1,1.156,1.348,1.415,1.415,0,0,1-.385,1.156,1.923,1.923,0,0,1-.963.77,2.443,2.443,0,0,1-1.156.193,1.638,1.638,0,0,1-.963-.578,1.585,1.585,0,0,1-.385-1.733c.578-.77.963-.963,1.156-.963.385-.193.578-.193.385-.193.193.193,0,.193-.385.193-.193,0-.385.385-.578.77a1.277,1.277,0,0,0,.385,1.348,1.847,1.847,0,0,0,1.733.385,1.652,1.652,0,0,0,1.156-1.348c0-.578-.578-.963-.963-1.156a1.228,1.228,0,0,0-1.156,0Z" transform="translate(-162.74 -333.256)"/></g><g transform="translate(41.407 22.148)"><path class="x" d="M172.326,337.589a26.59,26.59,0,0,1-3.659-1.156A24.461,24.461,0,0,1,165.2,334.7s1.541.578,3.467,1.541A21.979,21.979,0,0,1,172.326,337.589Z" transform="translate(-165.2 -334.7)"/></g><g transform="translate(40.637 23.111)"><path class="x" d="M168.074,336.741c0,.193-.77,0-1.733-.385s-1.541-.963-1.541-1.156l1.541.77C167.3,336.356,168.074,336.548,168.074,336.741Z" transform="translate(-164.8 -335.2)"/></g><g transform="translate(31.97 23.689)"><path class="x" d="M160.3,343.781h.193c.193,0,.385.193.77.193.578.193,1.541.578,2.7.963,2.311.963,5.585,2.119,9.244,3.659h-.193c1.541-2.5,3.081-5.392,4.815-8.281l.193-.193.193.193c-4.815-1.733-9.244-3.467-12.9-4.622h.193c-2.889,4.622-4.622,7.126-5.2,8.089,0,0,.385-.77,1.348-2.311.77-1.348,2.118-3.467,3.659-5.778V335.5h.193c3.659,1.348,8.089,2.889,12.9,4.622h.193l-.193.193-.193.193c-1.733,2.889-3.467,5.778-4.815,8.281v.193H173.2c-3.852-1.541-6.933-2.889-9.437-3.852a18.777,18.777,0,0,1-2.7-1.156c-.193-.193-.578-.193-.77-.385Z" transform="translate(-160.3 -335.5)"/></g><g transform="translate(27.618 34.388)"><path class="x" d="M159.311,341.334a.673.673,0,0,1,.385-.193c.193,0,.77-.193,1.156,0a1.442,1.442,0,0,1,1.156,1.348,1.415,1.415,0,0,1-.385,1.156,1.923,1.923,0,0,1-.963.77,2.442,2.442,0,0,1-1.156.193,1.638,1.638,0,0,1-.963-.578,1.585,1.585,0,0,1-.385-1.733c.578-.771.963-1.156,1.156-.963.385-.193.578-.193.385-.193.193,0,0,0-.385.193-.193,0-.385.385-.578.77a1.277,1.277,0,0,0,.385,1.348,1.847,1.847,0,0,0,1.733.385,1.652,1.652,0,0,0,1.156-1.348c0-.578-.578-.963-.963-1.156a1.228,1.228,0,0,0-1.156,0Z" transform="translate(-158.04 -341.056)"/></g><g transform="translate(32.355 37.17)"><path class="x" d="M167.626,345.389a26.6,26.6,0,0,1-3.659-1.156A24.461,24.461,0,0,1,160.5,342.5s1.541.578,3.659,1.541C166.085,344.618,167.626,345.2,167.626,345.389Z" transform="translate(-160.5 -342.5)"/></g><g transform="translate(31.585 37.94)"><path class="x" d="M163.374,344.441c0,.193-.77,0-1.733-.385s-1.541-.963-1.541-1.156l1.541.77A7.91,7.91,0,0,1,163.374,344.441Z" transform="translate(-160.1 -342.9)"/></g><g transform="translate(22.918 38.518)"><path class="x" d="M155.6,351.481h.193c.193,0,.385.193.77.193.578.193,1.541.578,2.7.963,2.311.963,5.585,2.119,9.244,3.659h-.193c1.541-2.5,3.081-5.393,4.815-8.281l.193-.193.193.193c-4.815-1.733-9.244-3.467-12.9-4.622h.193a90.548,90.548,0,0,1-5.2,8.089s.385-.77,1.348-2.311c.77-1.348,2.118-3.467,3.659-5.778V343.2h.193c3.659,1.348,8.089,2.889,12.9,4.622h.193l-.193.193-.193.193c-1.733,2.889-3.467,5.778-4.815,8.281v.193H168.5c-3.852-1.541-6.933-2.889-9.437-3.852a18.777,18.777,0,0,1-2.7-1.156c-.193-.193-.578-.193-.77-.385C155.793,351.674,155.6,351.481,155.6,351.481Z" transform="translate(-155.6 -343.2)"/></g><g transform="translate(43.718 20.029)"><path class="x" d="M185.659,333.6s-4.237,8.667-9.437,19.066c-5.393,10.592-9.822,19.066-9.822,19.066s4.237-8.667,9.437-19.066C181.229,342.074,185.659,333.6,185.659,333.6Z" transform="translate(-166.4 -333.6)"/></g><g transform="translate(55.647 24.622)"><path class="x" d="M182.428,339.481c0,.193-2.311-.578-5.007-1.541s-5.007-1.733-4.815-1.926c0-.193,2.311.578,5.007,1.541S182.428,339.481,182.428,339.481Z" transform="translate(-172.594 -335.985)"/></g><g transform="translate(58.883 23.111)"><path class="x" d="M176.635,342.9a15.153,15.153,0,0,1-1.541-3.659c-.578-2.119-.963-3.852-.77-4.044.193,0,.578,1.733,1.156,3.852S176.635,342.711,176.635,342.9Z" transform="translate(-174.274 -335.2)"/></g><g transform="translate(58.21 33.126)"><path class="x" d="M174.069,343.867c-.193,0-.193-.77,0-1.733,0-.963.193-1.733.385-1.733s.193.77,0,1.733C174.455,343.1,174.262,343.867,174.069,343.867Z" transform="translate(-173.925 -340.4)"/></g><g transform="translate(57.007 34.666)"><path class="x" d="M177.152,341.393c0,.193-.963,0-1.926.193s-1.926.385-1.926.193a3.454,3.454,0,0,1,1.926-.578A8.741,8.741,0,0,1,177.152,341.393Z" transform="translate(-173.3 -341.2)"/></g><g transform="translate(21.167 9.052)"><path class="x" d="M154.709,327.9s1.348.578,3.081,1.541a13,13,0,0,1,3.081,1.541,22.422,22.422,0,0,1-3.274-1.156A11.916,11.916,0,0,1,154.709,327.9Z" transform="translate(-154.69 -327.9)"/></g><g transform="translate(21.185 3.081)"><path class="x" d="M160.478,324.8s-1.156,2.311-2.7,5.2a37.178,37.178,0,0,1-3.081,5.007s1.156-2.311,2.7-5.2C159.13,326.918,160.478,324.8,160.478,324.8Z" transform="translate(-154.7 -324.8)"/></g><g transform="translate(21.763 5.585)"><path class="x" d="M155.385,328.8c-.193,0-.193-.578-.385-1.348V326.1c.193,0,.193.578.385,1.348A2.62,2.62,0,0,1,155.385,328.8Z" transform="translate(-155 -326.1)"/></g><g transform="translate(20.415 6.661)"><path class="x" d="M158.537,326.738c0,.193-.963.385-2.118.578s-2.118.385-2.118.193.963-.385,2.118-.578S158.537,326.546,158.537,326.738Z" transform="translate(-154.3 -326.659)"/></g></g><path class="p" d="M172.2,352.127s2.5-8.281,2.889-8.281c1.541,0,.578,4.43.578,4.43s5.007-7.318,6.163-6.548c.578.385-1.733,4.815-1.733,4.815s3.274-3.081,4.237-2.5-2.7,4.815-2.7,4.815,2.5-1.926,3.467-1.348c.578.385-9.437,9.437-9.437,9.437Z" transform="translate(-48.942 -303.193)"/><path class="p" d="M172.2,352.127s2.5-8.281,2.889-8.281c1.541,0,.578,4.43.578,4.43s5.007-7.318,6.163-6.548c.578.385-1.733,4.815-1.733,4.815s3.274-3.081,4.237-2.5-2.7,4.815-2.7,4.815,2.5-1.926,3.467-1.348c.578.385-9.437,9.437-9.437,9.437Z" transform="translate(-48.942 -303.193)"/><g transform="translate(66.251 233.821)"><path class="p" d="M146.937,443.1l.193,5.778-4.237.77-.193-6.355Z" transform="translate(-142.507 -443.1)"/><path class="o" d="M142.985,447.32s17.333-3.081,19.837-.963S142.6,450.4,142.6,450.4Z" transform="translate(-142.6 -440.772)"/></g><g transform="translate(0 210.132)"><path class="p" d="M117.111,434.267l-4.815,3.274-2.7-3.274,5.393-3.467Z" transform="translate(-106.904 -430.8)"/><path class="o" d="M110.9,432.6s11.555,13.1,11.17,16.563c-.578,3.274-13.866-15.215-13.866-15.215Z" transform="translate(-108.2 -429.133)"/></g><path class="o" d="M183.955,368.5s14.444,13.481,14.829,62.977c.193,49.688-17.141,82.621-17.141,82.621H169.51s20.029-62.4-2.5-103.614c0,0-7.511,48.148-47.377,84.932L110,485.21s29.466-36.977,29.659-83.006c0-9.052,1.541-13.867-1.541-24.074Z" transform="translate(-106.533 -278.352)"/><g transform="translate(72.414 178.49)"><path class="ab" d="M156.97,414.813c0,.193-2.5.193-5.585.578s-5.393.963-5.585.77c0-.193,2.311-1.156,5.393-1.541C154.467,414.043,156.97,414.62,156.97,414.813Z" transform="translate(-145.8 -414.37)"/></g><g transform="translate(72.799 174.871)"><path class="ab" d="M158.326,412.508a8.711,8.711,0,0,1-1.541,1.156,12.044,12.044,0,0,1-4.43,1.348,17.379,17.379,0,0,1-4.622-.193c-1.156-.385-1.733-.578-1.733-.77s2.889.77,6.355.193C155.63,413.856,158.133,412.315,158.326,412.508Z" transform="translate(-146 -412.491)"/></g><g transform="translate(33.851 162.37)"><path class="ab" d="M131.6,413.511c0,.193-2.118-.77-3.852-3.081-1.733-2.118-2.118-4.43-1.926-4.43s.963,1.926,2.5,4.044C130.059,411.97,131.792,413.318,131.6,413.511Z" transform="translate(-125.777 -406)"/></g><g transform="translate(32.163 166.57)"><path class="ab" d="M131.448,412.647c-.193,0-.193-.385-.77-.77s-1.348-.963-2.311-1.541a25.453,25.453,0,0,1-3.467-2.118c0-.193,1.733.385,3.659,1.541a12,12,0,0,1,2.311,1.733A1.79,1.79,0,0,1,131.448,412.647Z" transform="translate(-124.9 -408.181)"/></g><g transform="translate(52.192 127.126)"><path class="ab" d="M154.752,396.367a7.507,7.507,0,0,1-3.081-.385c-1.926-.578-4.237-1.926-6.933-3.081-2.7-1.348-5.007-2.5-6.741-3.467s-2.7-1.541-2.7-1.733c0,0,1.156.385,2.889,1.156s4.237,1.926,6.741,3.274a67.825,67.825,0,0,0,6.741,3.274C153.6,396.174,154.752,396.174,154.752,396.367Z" transform="translate(-135.3 -387.7)"/></g><path class="q" d="M120.5,348.628l8.474,65.673,53.347.77-7.9-49.5s26.385,25.037,37.94,14.637,13.289-20.607,13.289-20.607l-6.355-4.237s-9.437,18.1-18.1,12.518c-9.822-6.355-31.585-32.548-52-29.466C135.522,340.347,122.618,332.836,120.5,348.628Z" transform="translate(-96.811 -306.435)"/><g transform="translate(6.714)"><path class="p" d="M143.652,323.3l5.007,12.711a5.549,5.549,0,0,1-3.081,7.126l-1.733.578.77,9.244-12.9,1.156L129.4,327.922Z" transform="translate(-95.284 -320.203)"/><path class="f" d="M136.341,348.861s5.007-4.237,4.622-8.089c0,0-7.318-3.081-5.393-5.2s6.163,1.541,6.163,1.541-2.889-5.585-2.311-7.126c0,0,9.437-.77,7.511-6.355,0,0-2.889-2.118-8.859-1.926S129.6,332.3,129.6,332.3Z" transform="translate(-95.099 -321.69)"/><path class="f" d="M155.624,322.285a18.606,18.606,0,0,0-16.37,3.659,18.05,18.05,0,0,0-6.355,15.407c.385,4.044,1.926,8.281.385,11.941a13.347,13.347,0,0,1-3.852,4.815c-4.43,4.044-9.244,8.089-12.711,13.1s-5.778,11.17-4.815,17.141a14.707,14.707,0,0,0,3.081,7.126,20.613,20.613,0,0,1,2.7,3.081c2.7,4.044,1.156,9.63,2.889,14.252,2.118,5.778,9.052,8.474,15.215,9.052,8.474.77,17.718-.963,24.074-6.741s8.667-16.178,3.852-23.3c-2.311-3.467-6.548-6.548-6.163-10.785.193-2.7,2.311-4.622,3.274-7.126a11.922,11.922,0,0,0-3.467-14.252c-1.541-1.156-3.467-1.926-4.815-3.274s-2.311-3.467-1.541-5.2c.578-1.348,2.118-2.119,2.889-3.467.963-1.926-.193-4.43-1.733-6.163s-3.274-3.467-3.467-5.585a7.561,7.561,0,0,1,1.541-4.815c1.541-2.889,3.081-5.97,4.622-8.859" transform="translate(-111.686 -321.692)"/></g></g><path class="l" d="M314,172.215h182s-9.63-49.688-57.777-37.748c0,0-35.629-100.725-70.681,0,0,0-29.852-49.881-53.54-50.266C262.96,83.624,247.938,172.215,314,172.215Z" transform="translate(423.887 166.369)"/><path class="l" d="M70.006,122.623H241.219s-9.052-46.8-54.31-35.437c0,0-33.511-94.754-66.444,0,0,0-28.118-46.992-50.459-47.185C22.051,39.424,7.992,122.623,70.006,122.623Z" transform="translate(200.461 125.444)"/><path class="ac" d="M367.608,84.286h97.836s-5.2-26.77-31.2-20.222c0,0-19.259-54.118-37.94,0,0,0-16.178-26.77-28.889-26.963C340.067,36.716,332.171,84.286,367.608,84.286Z" transform="translate(492.379 122.759)"/><path class="ac" d="M24.565,137.83H76.757s-2.7-14.252-16.563-10.785c0,0-10.207-28.889-20.222,0,0,0-8.667-14.252-15.407-14.444C9.929,112.408,5.692,137.83,24.565,137.83Z" transform="translate(185.044 192.666)"/><path class="ac" d="M434.065,30.93h52.192s-2.7-14.252-16.563-10.785c0,0-10.207-28.889-20.222,0,0,0-8.667-14.252-15.407-14.444C419.429,5.508,415.192,30.93,434.065,30.93Z" transform="translate(564.201 93.687)"/><path class="ac" d="M107.608,47.287h97.836s-5.2-26.77-31.2-20.222c0,0-19.259-54.118-37.94,0,0,0-16.178-26.77-28.889-26.963C80.067-.475,72.171,47.287,107.608,47.287Z" transform="translate(251.644 88.5)"/><g transform="translate(174.014 616.057)"><path class="ad" d="M72.783,473.548C53.909,487.8,23.287,474.9,6.339,460.066a18.012,18.012,0,0,1-5.97-9.822c-3.852-18.489,25.229-22.918,26-39.481.385-7.126-5.007-13.289-9.052-19.259C8.072,377.83,5.569,360.5,7.495,344.127s8.089-31.97,15.215-46.8c5.778-12.133,16.37-26,29.466-22.918,8.474,1.926,13.866,10.207,16.37,18.681,3.467,11.363,2.889,23.689.578,35.437-.963,5.2-2.311,10.592-.963,15.6,3.659,13.1,21.955,15.985,28.5,27.733C103.4,383.8,95.316,398.437,88,409.993c-6.355,9.822-10.207,15.985-6.163,24.459a17.054,17.054,0,0,0,4.622,5.778C90.5,443.7,98.012,454.289,72.783,473.548Z" transform="translate(-0.018 -273.974)"/><g transform="translate(50.81 91.338)"><path class="x" d="M26.785,475.087c-.193,0-.385-34.474-.385-76.844s.193-76.844.385-76.844.385,34.474.385,76.844S26.978,475.087,26.785,475.087Z" transform="translate(-26.4 -321.4)"/></g><g transform="translate(18.455 167.026)"><path class="x" d="M39.837,383.811a8.806,8.806,0,0,1-1.156-.77c-.77-.578-1.926-1.541-3.274-2.5-2.7-2.118-6.355-5.2-10.592-8.281-4.237-3.274-7.9-5.97-10.785-8.089a28.33,28.33,0,0,1-3.274-2.5A11.789,11.789,0,0,1,9.6,360.7a5.329,5.329,0,0,1,1.348.77q1.156.867,3.467,2.311c2.889,1.926,6.741,4.622,10.978,7.9s7.9,6.163,10.4,8.474c1.348,1.156,2.311,2.119,3.081,2.7S40.029,383.811,39.837,383.811Z" transform="translate(-9.6 -360.7)"/></g><g transform="translate(49.269 109.249)"><path class="x" d="M48.326,330.7a51.912,51.912,0,0,1-3.274,4.237c-2.118,2.5-4.815,5.97-8.089,9.822-3.081,3.852-5.97,7.318-7.9,9.822a45.488,45.488,0,0,1-3.467,4.044,8.809,8.809,0,0,1,.77-1.156c.578-.77,1.348-1.733,2.311-3.081,1.926-2.7,4.622-6.163,7.7-10.015a126.707,126.707,0,0,1,8.281-9.629,26.012,26.012,0,0,0,2.5-2.889Z" transform="translate(-25.6 -330.7)"/></g></g><g transform="translate(982.666 773.646)"><path class="ae" d="M419.9,355.8" transform="translate(-419.9 -355.8)"/></g><g transform="translate(968.449 609.894)"><g transform="translate(60.619 84.562)"><path class="af" d="M489.072,438.167c-11.748,8.859-30.622.77-41.214-8.281a9.843,9.843,0,0,1-3.659-5.97c-2.311-11.363,15.6-14.252,16.178-24.459.193-4.43-3.081-8.089-5.585-11.941-5.585-8.474-7.318-19.259-5.97-29.274,1.156-10.207,5.007-19.837,9.437-29.081,3.659-7.511,10.015-15.985,18.3-14.252,5.2,1.156,8.667,6.355,10.207,11.555,2.119,7.126,1.733,14.637.385,21.955-.578,3.274-1.541,6.548-.578,9.63,2.119,8.089,13.481,9.822,17.718,17.141,4.237,7.511-.77,16.37-5.392,23.689-3.852,6.163-6.355,10.015-3.852,15.215a17.256,17.256,0,0,0,2.889,3.659C500.05,419.679,504.672,426.227,489.072,438.167Z" transform="translate(-443.993 -314.682)"/><g transform="translate(28.131 14.287)"><path class="x" d="M458.985,475.787c-.193,0-.385-34.474-.385-76.844s.193-76.843.385-76.843.385,34.474.385,76.843S459.178,475.787,458.985,475.787Z" transform="translate(-458.6 -322.1)"/></g></g><path class="ad" d="M485.283,470.348c-18.874,14.252-49.5,1.348-66.444-13.481a18.012,18.012,0,0,1-5.97-9.822c-3.852-18.489,25.229-22.918,26-39.481.385-7.126-5.007-13.289-9.052-19.259-9.244-13.674-11.748-31.007-9.822-47.377s8.089-31.97,15.215-46.8c5.778-12.133,16.37-26,29.466-22.918,8.474,1.926,13.867,10.207,16.37,18.681,3.467,11.363,2.889,23.689.578,35.437-.963,5.2-2.311,10.592-.963,15.6,3.659,13.1,21.955,15.985,28.5,27.733,6.741,11.941-1.348,26.577-8.859,38.133-6.355,9.822-10.207,15.985-6.163,24.459a17.054,17.054,0,0,0,4.622,5.778C503,440.689,510.512,451.281,485.283,470.348Z" transform="translate(-412.518 -270.774)"/><g transform="translate(50.81 91.338)"><path class="x" d="M439.285,471.887c-.193,0-.385-34.474-.385-76.844s.193-76.844.385-76.844.385,34.474.385,76.844C439.67,437.606,439.478,471.887,439.285,471.887Z" transform="translate(-438.9 -318.2)"/></g><g transform="translate(20.958 167.219)"><path class="x" d="M453.637,380.711a8.813,8.813,0,0,1-1.156-.77c-.77-.578-1.926-1.541-3.274-2.5-2.7-2.119-6.355-5.2-10.592-8.281-4.237-3.274-7.9-5.97-10.785-8.089a28.332,28.332,0,0,1-3.274-2.5,11.792,11.792,0,0,1-1.156-.963,5.332,5.332,0,0,1,1.348.77q1.155.867,3.467,2.311c2.889,1.926,6.741,4.622,10.978,7.9s7.9,6.163,10.4,8.474c1.348,1.156,2.311,2.119,3.081,2.7C453.252,380.133,453.637,380.518,453.637,380.711Z" transform="translate(-423.4 -357.6)"/></g><g transform="translate(49.269 109.441)"><path class="x" d="M460.826,327.6a51.9,51.9,0,0,1-3.274,4.237c-2.118,2.5-4.815,5.97-8.089,9.822-3.081,3.852-5.97,7.318-7.9,9.822a45.517,45.517,0,0,1-3.467,4.044,8.8,8.8,0,0,1,.77-1.156c.578-.77,1.348-1.733,2.311-3.081,1.926-2.7,4.622-6.163,7.7-10.015a126.718,126.718,0,0,1,8.281-9.63,26.005,26.005,0,0,0,2.5-2.889Z" transform="translate(-438.1 -327.6)"/></g></g><g transform="translate(252.172 542.73)"><circle class="ag" cx="34.474" cy="34.474" r="34.474"/><path class="ag" d="M65.9,274.833l16.755,5.2L81.307,262.7Z" transform="translate(-17.175 -211.086)"/><text class="ah" transform="translate(40.502 29.458) rotate(180)"><tspan x="0" y="0"></tspan></text></g><g transform="translate(963.792 243.071)"><g transform="translate(0 3.455)"><path class="ai" d="M410.1,97.7s1.156-.385,3.659-1.156c2.7-.77,6.548-1.926,10.978-3.274,9.437-2.7,22.918-6.548,38.9-10.978l.77-.193.193.77c2.5,9.437,5.392,19.837,8.281,30.622.193-.193-1.156,2.118-.578,1.156h-.385l-.578.193-.963.193-1.926.578a28.157,28.157,0,0,1-3.852.963c-2.5.77-5.007,1.348-7.511,1.926-4.815,1.348-9.63,2.5-14.252,3.852-9.052,2.311-17.333,4.622-24.652,6.548l-.578.193-.193-.578c-2.311-9.437-4.237-17.141-5.778-22.726-.578-2.5-1.156-4.43-1.541-6.163,0-1.348,0-2.118,0-1.926a12.418,12.418,0,0,1,.77,2.311c.578,1.541,1.156,3.659,1.926,6.163,1.541,5.585,3.659,13.1,6.355,22.148l-.77-.578c7.318-1.926,15.6-4.237,24.652-6.741,4.622-1.156,9.244-2.5,14.252-3.852,2.5-.578,5.007-1.348,7.511-1.926a28.155,28.155,0,0,1,3.852-.963l1.926-.578.963-.193.578-.193h.385c.578-.963-.77,1.348-.578,1.156-2.889-10.785-5.778-21.185-8.281-30.622l.963.578c-15.6,4.237-29.081,7.511-38.518,10.015-4.622,1.156-8.474,2.118-11.17,2.889A22.22,22.22,0,0,0,410.1,97.7Z" transform="translate(-410.1 -82.1)"/></g><g transform="translate(0.185 4.409)"><path class="ai" d="M463.936,82.6c.193.193-2.119,3.081-5.97,7.7s-9.244,10.978-15.407,17.911c-1.926.578-.578.193-.963.193h-.963l-.77-.193-1.541-.578c-1.156-.385-2.118-.77-3.081-1.156-2.119-.77-4.044-1.348-5.97-2.118-3.659-1.348-6.933-2.5-10.015-3.467-5.778-2.118-9.244-3.467-9.052-3.659,0-.193,3.659.77,9.437,2.5,3.081.963,6.548,2.118,10.207,3.274,1.926.578,3.852,1.348,5.97,1.926a18.932,18.932,0,0,0,3.081.963l1.541.578.77.193.385.193h.385c-.385.193.963-.193-.963.193,6.163-6.933,11.748-13.1,15.792-17.718C461.048,85.108,463.744,82.412,463.936,82.6Z" transform="translate(-410.196 -82.595)"/></g><path class="aj" d="M447.343,84.724a5.98,5.98,0,1,1-7.318-4.237A6.08,6.08,0,0,1,447.343,84.724Z" transform="translate(-386.484 -80.306)"/></g><g transform="translate(226.942 414.272)"><path class="ai" d="M36.167,169.2s1.348.193,3.659.77c2.7.77,6.355,1.541,10.785,2.7,9.244,2.311,22.533,5.778,37.94,9.822l.77.193-.193.77c-2.5,9.244-5.2,19.259-7.9,29.851.193-.193-1.926,1.156-1.156.578h-.385l-.385-.193-.963-.193-1.926-.578c-1.156-.385-2.5-.578-3.659-.963-2.5-.578-4.815-1.348-7.126-1.926-4.815-1.348-9.244-2.5-13.674-3.659-8.667-2.5-16.755-4.622-23.881-6.548l-.578-.193.193-.578c2.5-9.052,4.622-16.37,6.355-21.763q1.156-3.467,1.733-5.778a13.312,13.312,0,0,1,.385-2.311,21.788,21.788,0,0,0-.385,2.311c-.385,1.541-.963,3.659-1.541,5.97-1.348,5.393-3.274,12.711-5.393,21.57l-.385-.77c7.126,1.926,15.022,4.044,23.881,6.355,4.43,1.156,9.052,2.5,13.674,3.659,2.311.578,4.815,1.348,7.126,1.926,1.156.385,2.5.578,3.659.963l1.926.578.963.193.385.193h.385c.963-.578-1.348.77-.963.578,2.889-10.592,5.585-20.607,8.089-29.659l.578.963c-15.022-4.237-27.926-7.9-37.17-10.4-4.43-1.348-8.089-2.311-10.785-3.081C37.707,169.778,36.359,169.2,36.167,169.2Z" transform="translate(-27.5 -169.2)"/><g transform="translate(8.462 0.183)"><path class="ai" d="M84.29,183.171c0,.193-3.274,1.541-8.859,3.659-5.585,1.926-13.1,4.622-21.763,7.511-1.926-.578-.578-.193-.963-.193h0l-.193-.193-.193-.385-.578-.578-1.156-1.156a28.8,28.8,0,0,1-2.118-2.5l-4.044-4.622c-2.5-2.889-4.622-5.585-6.741-7.9-3.852-4.43-5.97-7.318-5.778-7.511s2.7,2.5,6.741,6.741c2.118,2.311,4.43,4.815,6.933,7.7,1.348,1.541,2.7,2.889,4.044,4.622a28.81,28.81,0,0,1,2.118,2.5L52.9,192.03l.578.578.193.385.193.193h0c-.385-.193.963.193-.963-.193,8.474-2.889,16.178-5.393,21.763-7.126C80.824,183.942,84.29,182.979,84.29,183.171Z" transform="translate(-31.894 -169.295)"/></g></g><g transform="translate(955.896 428.894)"><g transform="translate(2.889 3.457)"><path class="ai" d="M501.1,225.026a76.112,76.112,0,0,0-1.733-11.17,41.661,41.661,0,0,0-5.2-12.133,45.6,45.6,0,0,0-11.748-12.9,46.331,46.331,0,0,0-19.259-8.474,45.411,45.411,0,0,0-24.074,2.119,41.949,41.949,0,0,0-11.555,6.163,42.828,42.828,0,0,0-9.63,9.63,45.459,45.459,0,0,0,0,53.925,59.944,59.944,0,0,0,4.43,5.393,57.338,57.338,0,0,0,5.2,4.43,41.95,41.95,0,0,0,11.555,6.163,47.428,47.428,0,0,0,24.074,2.118,46.33,46.33,0,0,0,19.259-8.474,45.6,45.6,0,0,0,11.748-12.9,47.7,47.7,0,0,0,5.2-12.133,62.093,62.093,0,0,0,1.733-11.748v2.889a13.832,13.832,0,0,1-.385,3.659,26.525,26.525,0,0,1-.963,4.815,42.291,42.291,0,0,1-5.007,12.518A46.736,46.736,0,0,1,483,262.2a44.972,44.972,0,0,1-19.644,8.859A47.408,47.408,0,0,1,438.7,269.13a42,42,0,0,1-11.941-6.355,59.937,59.937,0,0,1-5.393-4.43,61.977,61.977,0,0,1-4.622-5.393,47.9,47.9,0,0,1-9.244-27.733,45.33,45.33,0,0,1,9.244-27.733,61.988,61.988,0,0,1,4.622-5.393,38.736,38.736,0,0,1,5.393-4.43,42,42,0,0,1,11.941-6.355,47.409,47.409,0,0,1,24.651-1.926A44.972,44.972,0,0,1,483,188.242a49.452,49.452,0,0,1,11.748,13.289,42.291,42.291,0,0,1,5.007,12.518,26.525,26.525,0,0,1,.963,4.815,29.664,29.664,0,0,1,.385,3.659v2.5Z" transform="translate(-407.5 -178.587)"/></g><path class="ai" d="M505.954,226.688a3.037,3.037,0,0,0-.193-.77c0-.578-.193-1.348-.193-2.311a36.776,36.776,0,0,0-.385-3.852,19.679,19.679,0,0,0-1.156-5.2,48.381,48.381,0,0,0-5.585-13.1,49.006,49.006,0,0,0-12.518-13.866,46.861,46.861,0,0,0-20.607-9.052,49.838,49.838,0,0,0-25.807,2.118,45.329,45.329,0,0,0-12.326,6.741,62.14,62.14,0,0,0-5.585,4.815,34.858,34.858,0,0,0-4.815,5.778,48.914,48.914,0,0,0-9.437,28.889,50.628,50.628,0,0,0,2.5,15.407,47.03,47.03,0,0,0,6.933,13.481,45.056,45.056,0,0,0,4.815,5.778,66.8,66.8,0,0,0,5.585,4.815,48.346,48.346,0,0,0,12.326,6.741,49.838,49.838,0,0,0,25.807,2.119,48.1,48.1,0,0,0,20.607-9.052A51.721,51.721,0,0,0,498.443,252.3a48.381,48.381,0,0,0,5.585-13.1c.578-1.926.77-3.659,1.156-5.2a14.449,14.449,0,0,0,.385-3.852c0-.963.193-1.733.193-2.311,0-.963,0-1.156.193-1.156v3.081a15.178,15.178,0,0,1-.385,3.852,30.148,30.148,0,0,1-.963,5.2,42.793,42.793,0,0,1-5.393,13.289A48.164,48.164,0,0,1,486.5,266.362a49.76,49.76,0,0,1-47.377,7.318,47.478,47.478,0,0,1-12.711-6.741,45.053,45.053,0,0,1-5.778-4.815,71.772,71.772,0,0,1-5.007-5.778,47.36,47.36,0,0,1-7.126-13.866,48.419,48.419,0,0,1-2.5-15.792,50,50,0,0,1,14.829-35.437,45.049,45.049,0,0,1,5.778-4.815,50.557,50.557,0,0,1,12.711-6.741,52.025,52.025,0,0,1,26.385-2.118,50.109,50.109,0,0,1,20.992,9.437,53.824,53.824,0,0,1,12.711,14.252,42.794,42.794,0,0,1,5.393,13.289,30.154,30.154,0,0,1,.963,5.2,36.776,36.776,0,0,1,.385,3.852v2.311A1.92,1.92,0,0,0,505.954,226.688Z" transform="translate(-406 -176.792)"/><g transform="translate(49.688 3.482)"><path class="ai" d="M432.378,188.23c-.385,0-.578-2.118-.578-4.815s.385-4.815.578-4.815c.385,0,.578,2.118.578,4.815S432.763,188.23,432.378,188.23Z" transform="translate(-431.8 -178.6)"/></g><g transform="translate(18.415 16.175)"><path class="ai" d="M421.8,192.527c-.193.193-1.926-1.156-3.659-3.274s-2.889-3.852-2.5-4.044c.193-.193,1.926,1.156,3.659,3.274C420.836,190.409,421.991,192.335,421.8,192.527Z" transform="translate(-415.561 -185.191)"/></g><g transform="translate(76.577 74.529)"><path class="ai" d="M452,222.827c-.193.193-1.926-1.156-3.659-3.274s-2.889-3.852-2.5-4.044c.193-.193,1.926,1.156,3.659,3.274C451.228,220.709,452.384,222.442,452,222.827Z" transform="translate(-445.762 -215.491)"/></g><g transform="translate(86.858 49.318)"><path class="ai" d="M451.1,202.978c0-.385,2.118-.578,4.815-.578s4.815.385,4.815.578c0,.385-2.118.578-4.815.578S451.1,203.17,451.1,202.978Z" transform="translate(-451.1 -202.4)"/></g><g transform="translate(3.659 49.318)"><path class="ai" d="M407.9,202.978c0-.385,2.119-.578,4.815-.578s4.815.385,4.815.578c0,.385-2.119.578-4.815.578S407.9,203.17,407.9,202.978Z" transform="translate(-407.9 -202.4)"/></g><g transform="translate(49.688 86.488)"><path class="ai" d="M432.378,231.33c-.385,0-.578-2.118-.578-4.815s.385-4.815.578-4.815c.385,0,.578,2.119.578,4.815S432.763,231.33,432.378,231.33Z" transform="translate(-431.8 -221.7)"/></g><g transform="translate(14.811 73.318)"><path class="ai" d="M421.027,214.936c.193.193-1.156,1.926-3.274,3.659s-3.852,2.889-4.044,2.5c-.193-.193,1.156-1.926,3.274-3.659C418.909,215.706,420.835,214.551,421.027,214.936Z" transform="translate(-413.691 -214.861)"/></g><g transform="translate(76.247 16.696)"><path class="ai" d="M452.927,185.536c.193.193-1.156,1.926-3.274,3.659s-3.852,2.889-4.044,2.5c-.193-.193,1.156-1.926,3.274-3.659C450.809,186.306,452.542,185.151,452.927,185.536Z" transform="translate(-445.591 -185.461)"/></g><g transform="translate(46.992 24.282)"><path class="ai" d="M451.778,222.526c0,.193-2.118.385-5.97.385-3.659.193-8.859.193-14.83.193H430.4v-6.741c0-7.511,0-14.252.193-19.066s.193-7.9.385-7.9.385,3.081.385,7.9c.193,4.815.193,11.555.193,19.066v6.163l-.578-.578c5.97,0,11.17.193,14.829.193C449.466,222.333,451.778,222.526,451.778,222.526Z" transform="translate(-430.4 -189.4)"/></g></g><g transform="translate(436.78 290.244)"><path class="ai" d="M146.171,105.378c0,.193-1.156,0-3.081.77a9.1,9.1,0,0,0-5.585,5.97c-.578,1.733-.385,3.852-.385,5.97v7.318a24.554,24.554,0,0,0,.193,3.852,9.148,9.148,0,0,0,8.859,7.511h.578v8.089l-.963-.385c2.889-2.5,5.778-5.007,8.859-7.511l.193-.193h19.837a11.257,11.257,0,0,0,3.659-.385,8.8,8.8,0,0,0,5.393-4.43,9.236,9.236,0,0,0,.963-3.274V117.9c0-2.311.193-4.622-.578-6.548a9.688,9.688,0,0,0-3.852-4.43,11.226,11.226,0,0,0-5.585-1.156h-5.585c-6.933,0-12.518-.193-16.563-.193a28.576,28.576,0,0,1-4.43-.193h-1.926a8.725,8.725,0,0,0,1.541-.193,38.815,38.815,0,0,0,4.43-.193c4.044,0,9.63-.193,16.563-.193h5.585a11.07,11.07,0,0,1,5.97,1.156,9.844,9.844,0,0,1,4.43,4.815,11.247,11.247,0,0,1,.77,3.467v14.252a8.767,8.767,0,0,1-.963,3.852,10.59,10.59,0,0,1-5.97,5.2,14.42,14.42,0,0,1-4.044.385H154.837l.385-.193c-3.081,2.5-5.97,5.2-8.859,7.511l-.963.77v-1.156c0-2.7,0-5.2.193-7.511l.578.578a9.226,9.226,0,0,1-8.089-4.43,11.652,11.652,0,0,1-1.541-4.044,28.31,28.31,0,0,1,0-4.044v-7.318c0-2.311-.193-4.43.578-6.163a10.066,10.066,0,0,1,6.163-6.163A4.29,4.29,0,0,1,146.171,105.378Z" transform="translate(-136.456 -104.8)"/></g><path class="ak" d="M100.7,398.2,368.015,535.9H841.595l1.156-45.837-212.812-86.28Z" transform="translate(390.218 457.104)"/></g></svg>